<?xml version="1.0" encoding="UTF-8" standalone="no"?>
<svg
   width="900.32623pt"
   height="450.14688pt"
   viewBox="0 0 900.3262 450.14687"
   version="1.1"
   id="svg809"
   sodipodi:docname="experiment_simtimes.svg"
   inkscape:version="1.1.1 (3bf5ae0d25, 2021-09-20)"
   xmlns:inkscape="http://www.inkscape.org/namespaces/inkscape"
   xmlns:sodipodi="http://sodipodi.sourceforge.net/DTD/sodipodi-0.dtd"
   xmlns:xlink="http://www.w3.org/1999/xlink"
   xmlns="http://www.w3.org/2000/svg"
   xmlns:svg="http://www.w3.org/2000/svg"
   xmlns:rdf="http://www.w3.org/1999/02/22-rdf-syntax-ns#"
   xmlns:cc="http://creativecommons.org/ns#"
   xmlns:dc="http://purl.org/dc/elements/1.1/">
  <sodipodi:namedview
     id="namedview811"
     pagecolor="#ffffff"
     bordercolor="#666666"
     borderopacity="1.0"
     inkscape:pageshadow="2"
     inkscape:pageopacity="0.0"
     inkscape:pagecheckerboard="0"
     inkscape:document-units="pt"
     showgrid="false"
     width="900.32626pt"
     height="450.14688pt"
     inkscape:zoom="1.0429529"
     inkscape:cx="523.99297"
     inkscape:cy="339.90029"
     inkscape:window-width="1920"
     inkscape:window-height="1001"
     inkscape:window-x="-9"
     inkscape:window-y="-9"
     inkscape:window-maximized="1"
     inkscape:current-layer="g2506" />
  <metadata
     id="metadata411">
    <rdf:RDF>
      <cc:Work>
        <dc:type
           rdf:resource="http://purl.org/dc/dcmitype/StillImage" />
        <dc:date>2022-05-30T10:48:59.614399</dc:date>
        <dc:format>image/svg+xml</dc:format>
        <dc:creator>
          <cc:Agent>
            <dc:title>Matplotlib v3.5.0, https://matplotlib.org/</dc:title>
          </cc:Agent>
        </dc:creator>
      </cc:Work>
    </rdf:RDF>
  </metadata>
  <defs
     id="defs415">
    <style
       type="text/css"
       id="style413">*{stroke-linejoin: round; stroke-linecap: butt}</style>
    <style
       type="text/css"
       id="style1192">*{stroke-linejoin: round; stroke-linecap: butt}</style>
    <path
       id="ma9761178ca"
       d="M 0,0 V 3.5"
       style="stroke:#000000;stroke-width:0.8" />
    <path
       id="DejaVuSans-32-5"
       d="M 1228,531 H 3431 V 0 H 469 v 531 q 359,372 979,998 621,627 780,809 303,340 423,576 121,236 121,464 0,372 -261,606 -261,235 -680,235 -297,0 -627,-103 -329,-103 -704,-313 v 638 q 381,153 712,231 332,78 607,78 725,0 1156,-363 431,-362 431,-968 0,-288 -108,-546 -107,-257 -392,-607 -78,-91 -497,-524 Q 1991,1309 1228,531 Z"
       transform="scale(0.015625)" />
    <path
       id="DejaVuSans-34"
       d="M 2419,4116 825,1625 h 1594 z m -166,550 h 794 V 1625 h 666 V 1100 H 3047 V 0 H 2419 V 1100 H 313 v 609 z"
       transform="scale(0.015625)" />
    <path
       id="DejaVuSans-36-8"
       d="m 2113,2584 q -425,0 -674,-291 -248,-290 -248,-796 0,-503 248,-796 249,-292 674,-292 425,0 673,292 248,293 248,796 0,506 -248,796 -248,291 -673,291 z m 1253,1979 v -575 q -238,112 -480,171 -242,60 -480,60 -625,0 -955,-422 -329,-422 -376,-1275 184,272 462,417 279,145 613,145 703,0 1111,-427 408,-426 408,-1160 0,-719 -425,-1154 -425,-434 -1131,-434 -810,0 -1238,620 -428,621 -428,1799 0,1106 525,1764 525,658 1409,658 238,0 480,-47 242,-47 505,-140 z"
       transform="scale(0.015625)" />
    <path
       id="DejaVuSans-53-5"
       d="m 3425,4513 v -616 q -359,172 -678,256 -319,85 -616,85 -515,0 -795,-200 -280,-200 -280,-569 0,-310 186,-468 186,-157 705,-254 l 381,-78 q 706,-135 1042,-474 336,-339 336,-907 0,-679 -455,-1029 -454,-350 -1332,-350 -331,0 -705,75 -373,75 -773,222 v 650 q 384,-215 753,-325 369,-109 725,-109 540,0 834,212 294,213 294,607 0,343 -211,537 -211,194 -692,291 l -385,75 q -706,140 -1022,440 -315,300 -315,835 0,619 436,975 436,356 1201,356 329,0 669,-60 341,-59 697,-177 z"
       transform="scale(0.015625)" />
    <path
       id="DejaVuSans-41-1"
       d="M 2188,4044 1331,1722 h 1716 z m -357,622 h 716 L 4325,0 H 3669 L 3244,1197 H 1141 L 716,0 H 50 Z"
       transform="scale(0.015625)" />
    <path
       id="DejaVuSans-20-2"
       transform="scale(0.015625)"
       d="" />
    <path
       id="DejaVuSans-73-3"
       d="m 2834,3397 v -544 q -243,125 -506,187 -262,63 -544,63 -428,0 -642,-131 -214,-131 -214,-394 0,-200 153,-314 153,-114 616,-217 l 197,-44 q 612,-131 870,-370 258,-239 258,-667 0,-488 -386,-773 Q 2250,-91 1575,-91 1294,-91 989,-36 684,19 347,128 v 594 q 319,-166 628,-249 309,-82 613,-82 406,0 624,139 219,139 219,392 0,234 -158,359 -157,125 -692,241 l -200,47 q -534,112 -772,345 -237,233 -237,639 0,494 350,762 350,269 994,269 318,0 599,-47 282,-46 519,-140 z"
       transform="scale(0.015625)" />
    <path
       id="DejaVuSans-63-1"
       d="m 3122,3366 v -538 q -244,135 -489,202 -245,67 -495,67 -560,0 -870,-355 -309,-354 -309,-995 0,-641 309,-996 310,-354 870,-354 250,0 495,67 245,67 489,202 V 134 Q 2881,22 2623,-34 2366,-91 2075,-91 1284,-91 818,406 353,903 353,1747 q 0,856 470,1346 471,491 1290,491 265,0 518,-55 253,-54 491,-163 z"
       transform="scale(0.015625)" />
    <path
       id="DejaVuSans-6f-9"
       d="m 1959,3097 q -462,0 -731,-361 -269,-361 -269,-989 0,-628 267,-989 268,-361 733,-361 460,0 728,362 269,363 269,988 0,622 -269,986 -268,364 -728,364 z m 0,487 q 750,0 1178,-488 429,-487 429,-1349 Q 3566,888 3137,398 2709,-91 1959,-91 1206,-91 779,398 353,888 353,1747 q 0,862 426,1349 427,488 1180,488 z"
       transform="scale(0.015625)" />
    <path
       id="DejaVuSans-70-2"
       d="M 1159,525 V -1331 H 581 v 4831 h 578 v -531 q 182,312 458,463 277,152 661,152 638,0 1036,-506 399,-506 399,-1331 0,-825 -399,-1332 -398,-506 -1036,-506 -384,0 -661,152 -276,152 -458,464 z m 1957,1222 q 0,634 -261,995 -261,361 -717,361 -457,0 -718,-361 -261,-361 -261,-995 0,-634 261,-995 261,-361 718,-361 456,0 717,361 261,361 261,995 z"
       transform="scale(0.015625)" />
    <path
       id="DejaVuSans-65-5"
       d="M 3597,1894 V 1613 H 953 q 38,-594 358,-905 320,-311 892,-311 331,0 642,81 311,81 618,244 V 178 Q 3153,47 2828,-22 2503,-91 2169,-91 1331,-91 842,396 353,884 353,1716 q 0,859 464,1363 464,505 1252,505 706,0 1117,-455 411,-454 411,-1235 z m -575,169 q -6,471 -264,752 -258,282 -683,282 -481,0 -770,-272 -289,-272 -333,-766 z"
       transform="scale(0.015625)" />
    <path
       id="DejaVuSans-72-1"
       d="m 2631,2963 q -97,56 -211,82 -114,27 -251,27 -488,0 -749,-317 -261,-317 -261,-911 V 0 H 581 v 3500 h 578 v -544 q 182,319 472,473 291,155 707,155 59,0 131,-8 72,-7 159,-23 z"
       transform="scale(0.015625)" />
    <path
       id="DejaVuSans-61-9"
       d="m 2194,1759 q -697,0 -966,-159 -269,-159 -269,-544 0,-306 202,-486 202,-179 548,-179 479,0 768,339 289,339 289,901 v 128 z m 1147,238 V 0 H 2766 V 531 Q 2569,213 2275,61 1981,-91 1556,-91 q -537,0 -855,302 -317,302 -317,808 0,590 395,890 396,300 1180,300 h 807 v 57 q 0,397 -261,614 -261,217 -733,217 -300,0 -585,-72 -284,-72 -546,-216 v 532 q 315,122 612,182 297,61 578,61 760,0 1135,-394 375,-393 375,-1193 z"
       transform="scale(0.015625)" />
    <path
       id="DejaVuSans-74-3"
       d="M 1172,4494 V 3500 H 2356 V 3053 H 1172 V 1153 q 0,-428 117,-550 117,-122 477,-122 h 590 V 0 H 1766 Q 1100,0 847,248 594,497 594,1153 V 3053 H 172 v 447 h 422 v 994 z"
       transform="scale(0.015625)" />
    <path
       id="DejaVuSans-69-9"
       d="m 603,3500 h 575 V 0 H 603 Z m 0,1363 h 575 V 4134 H 603 Z"
       transform="scale(0.015625)" />
    <path
       id="DejaVuSans-28-8"
       d="m 1984,4856 q -418,-718 -622,-1422 -203,-703 -203,-1425 0,-721 205,-1429 205,-708 620,-1424 h -500 q -468,735 -701,1444 -233,709 -233,1409 0,697 231,1403 232,707 703,1444 z"
       transform="scale(0.015625)" />
    <path
       id="DejaVuSans-6d-9"
       d="m 3328,2828 q 216,388 516,572 300,184 706,184 547,0 844,-383 297,-382 297,-1088 V 0 h -578 v 2094 q 0,503 -179,746 -178,244 -543,244 -447,0 -707,-297 -259,-296 -259,-809 V 0 h -578 v 2094 q 0,506 -178,748 -178,242 -550,242 -441,0 -701,-298 -259,-298 -259,-808 V 0 H 581 v 3500 h 578 v -544 q 197,322 472,475 275,153 653,153 382,0 649,-194 267,-193 395,-562 z"
       transform="scale(0.015625)" />
    <path
       id="DejaVuSans-2c-7"
       d="m 750,794 h 659 V 256 L 897,-744 H 494 L 750,256 Z"
       transform="scale(0.015625)" />
    <path
       id="DejaVuSans-67-6"
       d="m 2906,1791 q 0,625 -258,968 -257,344 -723,344 -462,0 -720,-344 -258,-343 -258,-968 0,-622 258,-966 258,-344 720,-344 466,0 723,344 258,344 258,966 z M 3481,434 q 0,-893 -397,-1329 -396,-436 -1215,-436 -303,0 -572,45 -269,45 -522,139 v 559 q 253,-137 500,-202 247,-66 503,-66 566,0 847,295 281,295 281,892 V 616 Q 2728,306 2450,153 2172,0 1784,0 1141,0 747,490 353,981 353,1791 q 0,812 394,1302 394,491 1037,491 388,0 666,-153 278,-153 456,-462 v 531 h 575 z"
       transform="scale(0.015625)" />
    <path
       id="DejaVuSans-29-1"
       d="m 513,4856 h 500 q 468,-737 701,-1444 233,-706 233,-1403 0,-700 -233,-1409 -233,-709 -701,-1444 H 513 q 415,716 620,1424 205,708 205,1429 0,722 -205,1425 -205,704 -620,1422 z"
       transform="scale(0.015625)" />
    <path
       id="m1c63e9ed0d"
       d="M 0,0 H -3.5"
       style="stroke:#000000;stroke-width:0.8" />
    <path
       id="DejaVuSans-30-8"
       d="m 2034,4250 q -487,0 -733,-480 -245,-479 -245,-1442 0,-959 245,-1439 246,-480 733,-480 491,0 736,480 246,480 246,1439 0,963 -246,1442 -245,480 -736,480 z m 0,500 q 785,0 1199,-621 414,-620 414,-1801 0,-1178 -414,-1799 -414,-620 -1199,-620 -784,0 -1198,620 -414,621 -414,1799 0,1181 414,1801 414,621 1198,621 z"
       transform="scale(0.015625)" />
    <path
       id="DejaVuSans-38"
       d="m 2034,2216 q -450,0 -708,-241 -257,-241 -257,-662 0,-422 257,-663 258,-241 708,-241 450,0 709,242 260,243 260,662 0,421 -258,662 -257,241 -711,241 z m -631,268 q -406,100 -633,378 -226,279 -226,679 0,559 398,884 399,325 1092,325 697,0 1094,-325 397,-325 397,-884 0,-400 -227,-679 -226,-278 -629,-378 456,-106 710,-416 255,-309 255,-755 Q 3634,634 3220,271 2806,-91 2034,-91 1263,-91 848,271 434,634 434,1313 q 0,446 256,755 257,310 713,416 z m -231,997 q 0,-362 226,-565 227,-203 636,-203 407,0 636,203 230,203 230,565 0,363 -230,566 -229,203 -636,203 -409,0 -636,-203 -226,-203 -226,-566 z"
       transform="scale(0.015625)" />
    <path
       id="DejaVuSans-31-1"
       d="M 794,531 H 1825 V 4091 L 703,3866 v 575 l 1116,225 h 631 V 531 H 3481 V 0 H 794 Z"
       transform="scale(0.015625)" />
    <path
       id="DejaVuSans-25"
       d="m 4653,2053 q -272,0 -427,-231 -154,-231 -154,-644 0,-406 154,-639 155,-233 427,-233 266,0 420,233 155,233 155,639 0,410 -155,642 -154,233 -420,233 z m 0,397 q 494,0 784,-344 291,-343 291,-928 0,-584 -292,-927 -292,-342 -783,-342 -500,0 -791,342 -290,343 -290,927 0,588 292,930 292,342 789,342 z M 1428,4353 q -269,0 -424,-233 -154,-232 -154,-639 0,-412 153,-644 153,-231 425,-231 272,0 426,231 155,232 155,644 0,403 -156,637 -156,235 -425,235 z m 2822,397 h 500 L 1831,-91 h -500 z m -2822,0 q 494,0 787,-342 294,-342 294,-927 0,-590 -292,-931 -292,-341 -789,-341 -497,0 -786,342 -289,343 -289,930 0,582 290,925 291,344 785,344 z"
       transform="scale(0.015625)" />
    <clipPath
       id="p025bdb0d97">
      <rect
         x="75.731247"
         y="7.1999998"
         width="357.12"
         height="266.112"
         id="rect1478" />
    </clipPath>
    <style
       type="text/css"
       id="style2370">*{stroke-linejoin: round; stroke-linecap: butt}</style>
    <path
       id="ma2ca7d9c0f"
       d="M 0,0 V 3.5"
       style="stroke:#000000;stroke-width:0.8" />
    <path
       id="DejaVuSans-31"
       d="M 794,531 H 1825 V 4091 L 703,3866 v 575 l 1116,225 h 631 V 531 H 3481 V 0 H 794 Z"
       transform="scale(0.015625)" />
    <path
       id="DejaVuSans-32"
       d="M 1228,531 H 3431 V 0 H 469 v 531 q 359,372 979,998 621,627 780,809 303,340 423,576 121,236 121,464 0,372 -261,606 -261,235 -680,235 -297,0 -627,-103 -329,-103 -704,-313 v 638 q 381,153 712,231 332,78 607,78 725,0 1156,-363 431,-362 431,-968 0,-288 -108,-546 -107,-257 -392,-607 -78,-91 -497,-524 Q 1991,1309 1228,531 Z"
       transform="scale(0.015625)" />
    <path
       id="DejaVuSans-33"
       d="m 2597,2516 q 453,-97 707,-404 255,-306 255,-756 0,-690 -475,-1069 -475,-378 -1350,-378 -293,0 -604,58 -311,58 -642,174 v 609 q 262,-153 574,-231 313,-78 654,-78 593,0 904,234 311,234 311,681 0,413 -289,645 -289,233 -804,233 h -544 v 519 h 569 q 465,0 712,186 247,186 247,536 0,359 -255,551 -254,193 -729,193 -260,0 -557,-57 -297,-56 -653,-174 v 562 q 360,100 674,150 314,50 592,50 719,0 1137,-327 419,-326 419,-882 0,-388 -222,-655 -222,-267 -631,-370 z"
       transform="scale(0.015625)" />
    <path
       id="DejaVuSans-34-4"
       d="M 2419,4116 825,1625 h 1594 z m -166,550 h 794 V 1625 h 666 V 1100 H 3047 V 0 H 2419 V 1100 H 313 v 609 z"
       transform="scale(0.015625)" />
    <path
       id="DejaVuSans-53"
       d="m 3425,4513 v -616 q -359,172 -678,256 -319,85 -616,85 -515,0 -795,-200 -280,-200 -280,-569 0,-310 186,-468 186,-157 705,-254 l 381,-78 q 706,-135 1042,-474 336,-339 336,-907 0,-679 -455,-1029 -454,-350 -1332,-350 -331,0 -705,75 -373,75 -773,222 v 650 q 384,-215 753,-325 369,-109 725,-109 540,0 834,212 294,213 294,607 0,343 -211,537 -211,194 -692,291 l -385,75 q -706,140 -1022,440 -315,300 -315,835 0,619 436,975 436,356 1201,356 329,0 669,-60 341,-59 697,-177 z"
       transform="scale(0.015625)" />
    <path
       id="DejaVuSans-41"
       d="M 2188,4044 1331,1722 h 1716 z m -357,622 h 716 L 4325,0 H 3669 L 3244,1197 H 1141 L 716,0 H 50 Z"
       transform="scale(0.015625)" />
    <path
       id="DejaVuSans-20"
       transform="scale(0.015625)"
       d="" />
    <path
       id="DejaVuSans-73"
       d="m 2834,3397 v -544 q -243,125 -506,187 -262,63 -544,63 -428,0 -642,-131 -214,-131 -214,-394 0,-200 153,-314 153,-114 616,-217 l 197,-44 q 612,-131 870,-370 258,-239 258,-667 0,-488 -386,-773 Q 2250,-91 1575,-91 1294,-91 989,-36 684,19 347,128 v 594 q 319,-166 628,-249 309,-82 613,-82 406,0 624,139 219,139 219,392 0,234 -158,359 -157,125 -692,241 l -200,47 q -534,112 -772,345 -237,233 -237,639 0,494 350,762 350,269 994,269 318,0 599,-47 282,-46 519,-140 z"
       transform="scale(0.015625)" />
    <path
       id="DejaVuSans-63"
       d="m 3122,3366 v -538 q -244,135 -489,202 -245,67 -495,67 -560,0 -870,-355 -309,-354 -309,-995 0,-641 309,-996 310,-354 870,-354 250,0 495,67 245,67 489,202 V 134 Q 2881,22 2623,-34 2366,-91 2075,-91 1284,-91 818,406 353,903 353,1747 q 0,856 470,1346 471,491 1290,491 265,0 518,-55 253,-54 491,-163 z"
       transform="scale(0.015625)" />
    <path
       id="DejaVuSans-6f"
       d="m 1959,3097 q -462,0 -731,-361 -269,-361 -269,-989 0,-628 267,-989 268,-361 733,-361 460,0 728,362 269,363 269,988 0,622 -269,986 -268,364 -728,364 z m 0,487 q 750,0 1178,-488 429,-487 429,-1349 Q 3566,888 3137,398 2709,-91 1959,-91 1206,-91 779,398 353,888 353,1747 q 0,862 426,1349 427,488 1180,488 z"
       transform="scale(0.015625)" />
    <path
       id="DejaVuSans-70"
       d="M 1159,525 V -1331 H 581 v 4831 h 578 v -531 q 182,312 458,463 277,152 661,152 638,0 1036,-506 399,-506 399,-1331 0,-825 -399,-1332 -398,-506 -1036,-506 -384,0 -661,152 -276,152 -458,464 z m 1957,1222 q 0,634 -261,995 -261,361 -717,361 -457,0 -718,-361 -261,-361 -261,-995 0,-634 261,-995 261,-361 718,-361 456,0 717,361 261,361 261,995 z"
       transform="scale(0.015625)" />
    <path
       id="DejaVuSans-65"
       d="M 3597,1894 V 1613 H 953 q 38,-594 358,-905 320,-311 892,-311 331,0 642,81 311,81 618,244 V 178 Q 3153,47 2828,-22 2503,-91 2169,-91 1331,-91 842,396 353,884 353,1716 q 0,859 464,1363 464,505 1252,505 706,0 1117,-455 411,-454 411,-1235 z m -575,169 q -6,471 -264,752 -258,282 -683,282 -481,0 -770,-272 -289,-272 -333,-766 z"
       transform="scale(0.015625)" />
    <path
       id="DejaVuSans-72"
       d="m 2631,2963 q -97,56 -211,82 -114,27 -251,27 -488,0 -749,-317 -261,-317 -261,-911 V 0 H 581 v 3500 h 578 v -544 q 182,319 472,473 291,155 707,155 59,0 131,-8 72,-7 159,-23 z"
       transform="scale(0.015625)" />
    <path
       id="DejaVuSans-61"
       d="m 2194,1759 q -697,0 -966,-159 -269,-159 -269,-544 0,-306 202,-486 202,-179 548,-179 479,0 768,339 289,339 289,901 v 128 z m 1147,238 V 0 H 2766 V 531 Q 2569,213 2275,61 1981,-91 1556,-91 q -537,0 -855,302 -317,302 -317,808 0,590 395,890 396,300 1180,300 h 807 v 57 q 0,397 -261,614 -261,217 -733,217 -300,0 -585,-72 -284,-72 -546,-216 v 532 q 315,122 612,182 297,61 578,61 760,0 1135,-394 375,-393 375,-1193 z"
       transform="scale(0.015625)" />
    <path
       id="DejaVuSans-74"
       d="M 1172,4494 V 3500 H 2356 V 3053 H 1172 V 1153 q 0,-428 117,-550 117,-122 477,-122 h 590 V 0 H 1766 Q 1100,0 847,248 594,497 594,1153 V 3053 H 172 v 447 h 422 v 994 z"
       transform="scale(0.015625)" />
    <path
       id="DejaVuSans-69"
       d="m 603,3500 h 575 V 0 H 603 Z m 0,1363 h 575 V 4134 H 603 Z"
       transform="scale(0.015625)" />
    <path
       id="DejaVuSans-28"
       d="m 1984,4856 q -418,-718 -622,-1422 -203,-703 -203,-1425 0,-721 205,-1429 205,-708 620,-1424 h -500 q -468,735 -701,1444 -233,709 -233,1409 0,697 231,1403 232,707 703,1444 z"
       transform="scale(0.015625)" />
    <path
       id="DejaVuSans-6d"
       d="m 3328,2828 q 216,388 516,572 300,184 706,184 547,0 844,-383 297,-382 297,-1088 V 0 h -578 v 2094 q 0,503 -179,746 -178,244 -543,244 -447,0 -707,-297 -259,-296 -259,-809 V 0 h -578 v 2094 q 0,506 -178,748 -178,242 -550,242 -441,0 -701,-298 -259,-298 -259,-808 V 0 H 581 v 3500 h 578 v -544 q 197,322 472,475 275,153 653,153 382,0 649,-194 267,-193 395,-562 z"
       transform="scale(0.015625)" />
    <path
       id="DejaVuSans-2c"
       d="m 750,794 h 659 V 256 L 897,-744 H 494 L 750,256 Z"
       transform="scale(0.015625)" />
    <path
       id="DejaVuSans-67"
       d="m 2906,1791 q 0,625 -258,968 -257,344 -723,344 -462,0 -720,-344 -258,-343 -258,-968 0,-622 258,-966 258,-344 720,-344 466,0 723,344 258,344 258,966 z M 3481,434 q 0,-893 -397,-1329 -396,-436 -1215,-436 -303,0 -572,45 -269,45 -522,139 v 559 q 253,-137 500,-202 247,-66 503,-66 566,0 847,295 281,295 281,892 V 616 Q 2728,306 2450,153 2172,0 1784,0 1141,0 747,490 353,981 353,1791 q 0,812 394,1302 394,491 1037,491 388,0 666,-153 278,-153 456,-462 v 531 h 575 z"
       transform="scale(0.015625)" />
    <path
       id="DejaVuSans-29"
       d="m 513,4856 h 500 q 468,-737 701,-1444 233,-706 233,-1403 0,-700 -233,-1409 -233,-709 -701,-1444 H 513 q 415,716 620,1424 205,708 205,1429 0,722 -205,1425 -205,704 -620,1422 z"
       transform="scale(0.015625)" />
    <path
       id="m20133040b9"
       d="M 0,0 H -3.5"
       style="stroke:#000000;stroke-width:0.8" />
    <path
       id="DejaVuSans-30"
       d="m 2034,4250 q -487,0 -733,-480 -245,-479 -245,-1442 0,-959 245,-1439 246,-480 733,-480 491,0 736,480 246,480 246,1439 0,963 -246,1442 -245,480 -736,480 z m 0,500 q 785,0 1199,-621 414,-620 414,-1801 0,-1178 -414,-1799 -414,-620 -1199,-620 -784,0 -1198,620 -414,621 -414,1799 0,1181 414,1801 414,621 1198,621 z"
       transform="scale(0.015625)" />
    <path
       id="DejaVuSans-35"
       d="M 691,4666 H 3169 V 4134 H 1269 V 2991 q 137,47 274,70 138,23 276,23 781,0 1237,-428 457,-428 457,-1159 Q 3513,744 3044,326 2575,-91 1722,-91 1428,-91 1123,-41 819,9 494,109 v 635 q 281,-153 581,-228 300,-75 634,-75 541,0 856,284 316,284 316,772 0,487 -316,771 -315,285 -856,285 -253,0 -505,-56 -251,-56 -513,-175 z"
       transform="scale(0.015625)" />
    <path
       id="DejaVuSans-68"
       d="M 3513,2113 V 0 h -575 v 2094 q 0,497 -194,743 -194,247 -581,247 -466,0 -735,-297 -269,-296 -269,-809 V 0 H 581 v 4863 h 578 V 2956 q 207,316 486,472 280,156 646,156 603,0 912,-373 310,-373 310,-1098 z"
       transform="scale(0.015625)" />
    <path
       id="DejaVuSans-6e"
       d="M 3513,2113 V 0 h -575 v 2094 q 0,497 -194,743 -194,247 -581,247 -466,0 -735,-297 -269,-296 -269,-809 V 0 H 581 v 3500 h 578 v -544 q 207,316 486,472 280,156 646,156 603,0 912,-373 310,-373 310,-1098 z"
       transform="scale(0.015625)" />
    <path
       id="DejaVuSans-79"
       d="m 2059,-325 q -243,-625 -475,-815 -231,-191 -618,-191 H 506 v 481 h 338 q 237,0 368,113 132,112 291,531 L 1606,56 191,3500 H 800 L 1894,763 2988,3500 h 609 z"
       transform="scale(0.015625)" />
    <path
       id="DejaVuSans-7a"
       d="M 353,3500 H 3084 V 2975 L 922,459 H 3084 V 0 H 275 V 525 L 2438,3041 H 353 Z"
       transform="scale(0.015625)" />
    <path
       id="ma596c8e698"
       d="M 0,3 C 0.795609,3 1.55874,2.683901 2.12132,2.12132 2.683901,1.55874 3,0.795609 3,0 3,-0.795609 2.683901,-1.55874 2.12132,-2.12132 1.55874,-2.683901 0.795609,-3 0,-3 -0.795609,-3 -1.55874,-2.683901 -2.12132,-2.12132 -2.683901,-1.55874 -3,-0.795609 -3,0 -3,0.795609 -2.683901,1.55874 -2.12132,2.12132 -1.55874,2.683901 -0.795609,3 0,3 Z"
       style="stroke:#000000" />
    <clipPath
       id="p53bd9ff492">
      <rect
         x="63.006248"
         y="66.017441"
         width="357.12"
         height="266.112"
         id="rect2758" />
    </clipPath>
    <style
       type="text/css"
       id="style3373">*{stroke-linejoin: round; stroke-linecap: butt}</style>
    <path
       id="m442ab9e68f"
       d="M 0,0 V 3.5"
       style="stroke:#000000;stroke-width:0.8" />
    <path
       id="DejaVuSans-31-8"
       d="M 794,531 H 1825 V 4091 L 703,3866 v 575 l 1116,225 h 631 V 531 H 3481 V 0 H 794 Z"
       transform="scale(0.015625)" />
    <path
       id="DejaVuSans-32-9"
       d="M 1228,531 H 3431 V 0 H 469 v 531 q 359,372 979,998 621,627 780,809 303,340 423,576 121,236 121,464 0,372 -261,606 -261,235 -680,235 -297,0 -627,-103 -329,-103 -704,-313 v 638 q 381,153 712,231 332,78 607,78 725,0 1156,-363 431,-362 431,-968 0,-288 -108,-546 -107,-257 -392,-607 -78,-91 -497,-524 Q 1991,1309 1228,531 Z"
       transform="scale(0.015625)" />
    <path
       id="DejaVuSans-33-3"
       d="m 2597,2516 q 453,-97 707,-404 255,-306 255,-756 0,-690 -475,-1069 -475,-378 -1350,-378 -293,0 -604,58 -311,58 -642,174 v 609 q 262,-153 574,-231 313,-78 654,-78 593,0 904,234 311,234 311,681 0,413 -289,645 -289,233 -804,233 h -544 v 519 h 569 q 465,0 712,186 247,186 247,536 0,359 -255,551 -254,193 -729,193 -260,0 -557,-57 -297,-56 -653,-174 v 562 q 360,100 674,150 314,50 592,50 719,0 1137,-327 419,-326 419,-882 0,-388 -222,-655 -222,-267 -631,-370 z"
       transform="scale(0.015625)" />
    <path
       id="DejaVuSans-34-5"
       d="M 2419,4116 825,1625 h 1594 z m -166,550 h 794 V 1625 h 666 V 1100 H 3047 V 0 H 2419 V 1100 H 313 v 609 z"
       transform="scale(0.015625)" />
    <path
       id="DejaVuSans-53-1"
       d="m 3425,4513 v -616 q -359,172 -678,256 -319,85 -616,85 -515,0 -795,-200 -280,-200 -280,-569 0,-310 186,-468 186,-157 705,-254 l 381,-78 q 706,-135 1042,-474 336,-339 336,-907 0,-679 -455,-1029 -454,-350 -1332,-350 -331,0 -705,75 -373,75 -773,222 v 650 q 384,-215 753,-325 369,-109 725,-109 540,0 834,212 294,213 294,607 0,343 -211,537 -211,194 -692,291 l -385,75 q -706,140 -1022,440 -315,300 -315,835 0,619 436,975 436,356 1201,356 329,0 669,-60 341,-59 697,-177 z"
       transform="scale(0.015625)" />
    <path
       id="DejaVuSans-41-5"
       d="M 2188,4044 1331,1722 h 1716 z m -357,622 h 716 L 4325,0 H 3669 L 3244,1197 H 1141 L 716,0 H 50 Z"
       transform="scale(0.015625)" />
    <path
       id="DejaVuSans-20-1"
       transform="scale(0.015625)"
       d="" />
    <path
       id="DejaVuSans-73-9"
       d="m 2834,3397 v -544 q -243,125 -506,187 -262,63 -544,63 -428,0 -642,-131 -214,-131 -214,-394 0,-200 153,-314 153,-114 616,-217 l 197,-44 q 612,-131 870,-370 258,-239 258,-667 0,-488 -386,-773 Q 2250,-91 1575,-91 1294,-91 989,-36 684,19 347,128 v 594 q 319,-166 628,-249 309,-82 613,-82 406,0 624,139 219,139 219,392 0,234 -158,359 -157,125 -692,241 l -200,47 q -534,112 -772,345 -237,233 -237,639 0,494 350,762 350,269 994,269 318,0 599,-47 282,-46 519,-140 z"
       transform="scale(0.015625)" />
    <path
       id="DejaVuSans-63-0"
       d="m 3122,3366 v -538 q -244,135 -489,202 -245,67 -495,67 -560,0 -870,-355 -309,-354 -309,-995 0,-641 309,-996 310,-354 870,-354 250,0 495,67 245,67 489,202 V 134 Q 2881,22 2623,-34 2366,-91 2075,-91 1284,-91 818,406 353,903 353,1747 q 0,856 470,1346 471,491 1290,491 265,0 518,-55 253,-54 491,-163 z"
       transform="scale(0.015625)" />
    <path
       id="DejaVuSans-6f-6"
       d="m 1959,3097 q -462,0 -731,-361 -269,-361 -269,-989 0,-628 267,-989 268,-361 733,-361 460,0 728,362 269,363 269,988 0,622 -269,986 -268,364 -728,364 z m 0,487 q 750,0 1178,-488 429,-487 429,-1349 Q 3566,888 3137,398 2709,-91 1959,-91 1206,-91 779,398 353,888 353,1747 q 0,862 426,1349 427,488 1180,488 z"
       transform="scale(0.015625)" />
    <path
       id="DejaVuSans-70-5"
       d="M 1159,525 V -1331 H 581 v 4831 h 578 v -531 q 182,312 458,463 277,152 661,152 638,0 1036,-506 399,-506 399,-1331 0,-825 -399,-1332 -398,-506 -1036,-506 -384,0 -661,152 -276,152 -458,464 z m 1957,1222 q 0,634 -261,995 -261,361 -717,361 -457,0 -718,-361 -261,-361 -261,-995 0,-634 261,-995 261,-361 718,-361 456,0 717,361 261,361 261,995 z"
       transform="scale(0.015625)" />
    <path
       id="DejaVuSans-65-54"
       d="M 3597,1894 V 1613 H 953 q 38,-594 358,-905 320,-311 892,-311 331,0 642,81 311,81 618,244 V 178 Q 3153,47 2828,-22 2503,-91 2169,-91 1331,-91 842,396 353,884 353,1716 q 0,859 464,1363 464,505 1252,505 706,0 1117,-455 411,-454 411,-1235 z m -575,169 q -6,471 -264,752 -258,282 -683,282 -481,0 -770,-272 -289,-272 -333,-766 z"
       transform="scale(0.015625)" />
    <path
       id="DejaVuSans-72-8"
       d="m 2631,2963 q -97,56 -211,82 -114,27 -251,27 -488,0 -749,-317 -261,-317 -261,-911 V 0 H 581 v 3500 h 578 v -544 q 182,319 472,473 291,155 707,155 59,0 131,-8 72,-7 159,-23 z"
       transform="scale(0.015625)" />
    <path
       id="DejaVuSans-61-6"
       d="m 2194,1759 q -697,0 -966,-159 -269,-159 -269,-544 0,-306 202,-486 202,-179 548,-179 479,0 768,339 289,339 289,901 v 128 z m 1147,238 V 0 H 2766 V 531 Q 2569,213 2275,61 1981,-91 1556,-91 q -537,0 -855,302 -317,302 -317,808 0,590 395,890 396,300 1180,300 h 807 v 57 q 0,397 -261,614 -261,217 -733,217 -300,0 -585,-72 -284,-72 -546,-216 v 532 q 315,122 612,182 297,61 578,61 760,0 1135,-394 375,-393 375,-1193 z"
       transform="scale(0.015625)" />
    <path
       id="DejaVuSans-74-8"
       d="M 1172,4494 V 3500 H 2356 V 3053 H 1172 V 1153 q 0,-428 117,-550 117,-122 477,-122 h 590 V 0 H 1766 Q 1100,0 847,248 594,497 594,1153 V 3053 H 172 v 447 h 422 v 994 z"
       transform="scale(0.015625)" />
    <path
       id="DejaVuSans-69-95"
       d="m 603,3500 h 575 V 0 H 603 Z m 0,1363 h 575 V 4134 H 603 Z"
       transform="scale(0.015625)" />
    <path
       id="DejaVuSans-28-7"
       d="m 1984,4856 q -418,-718 -622,-1422 -203,-703 -203,-1425 0,-721 205,-1429 205,-708 620,-1424 h -500 q -468,735 -701,1444 -233,709 -233,1409 0,697 231,1403 232,707 703,1444 z"
       transform="scale(0.015625)" />
    <path
       id="DejaVuSans-6d-4"
       d="m 3328,2828 q 216,388 516,572 300,184 706,184 547,0 844,-383 297,-382 297,-1088 V 0 h -578 v 2094 q 0,503 -179,746 -178,244 -543,244 -447,0 -707,-297 -259,-296 -259,-809 V 0 h -578 v 2094 q 0,506 -178,748 -178,242 -550,242 -441,0 -701,-298 -259,-298 -259,-808 V 0 H 581 v 3500 h 578 v -544 q 197,322 472,475 275,153 653,153 382,0 649,-194 267,-193 395,-562 z"
       transform="scale(0.015625)" />
    <path
       id="DejaVuSans-2c-8"
       d="m 750,794 h 659 V 256 L 897,-744 H 494 L 750,256 Z"
       transform="scale(0.015625)" />
    <path
       id="DejaVuSans-67-1"
       d="m 2906,1791 q 0,625 -258,968 -257,344 -723,344 -462,0 -720,-344 -258,-343 -258,-968 0,-622 258,-966 258,-344 720,-344 466,0 723,344 258,344 258,966 z M 3481,434 q 0,-893 -397,-1329 -396,-436 -1215,-436 -303,0 -572,45 -269,45 -522,139 v 559 q 253,-137 500,-202 247,-66 503,-66 566,0 847,295 281,295 281,892 V 616 Q 2728,306 2450,153 2172,0 1784,0 1141,0 747,490 353,981 353,1791 q 0,812 394,1302 394,491 1037,491 388,0 666,-153 278,-153 456,-462 v 531 h 575 z"
       transform="scale(0.015625)" />
    <path
       id="DejaVuSans-29-3"
       d="m 513,4856 h 500 q 468,-737 701,-1444 233,-706 233,-1403 0,-700 -233,-1409 -233,-709 -701,-1444 H 513 q 415,716 620,1424 205,708 205,1429 0,722 -205,1425 -205,704 -620,1422 z"
       transform="scale(0.015625)" />
    <path
       id="mff897257d2"
       d="M 0,0 H -3.5"
       style="stroke:#000000;stroke-width:0.8" />
    <path
       id="DejaVuSans-30-3"
       d="m 2034,4250 q -487,0 -733,-480 -245,-479 -245,-1442 0,-959 245,-1439 246,-480 733,-480 491,0 736,480 246,480 246,1439 0,963 -246,1442 -245,480 -736,480 z m 0,500 q 785,0 1199,-621 414,-620 414,-1801 0,-1178 -414,-1799 -414,-620 -1199,-620 -784,0 -1198,620 -414,621 -414,1799 0,1181 414,1801 414,621 1198,621 z"
       transform="scale(0.015625)" />
    <path
       id="DejaVuSans-36"
       d="m 2113,2584 q -425,0 -674,-291 -248,-290 -248,-796 0,-503 248,-796 249,-292 674,-292 425,0 673,292 248,293 248,796 0,506 -248,796 -248,291 -673,291 z m 1253,1979 v -575 q -238,112 -480,171 -242,60 -480,60 -625,0 -955,-422 -329,-422 -376,-1275 184,272 462,417 279,145 613,145 703,0 1111,-427 408,-426 408,-1160 0,-719 -425,-1154 -425,-434 -1131,-434 -810,0 -1238,620 -428,621 -428,1799 0,1106 525,1764 525,658 1409,658 238,0 480,-47 242,-47 505,-140 z"
       transform="scale(0.015625)" />
    <path
       id="DejaVuSans-38-2"
       d="m 2034,2216 q -450,0 -708,-241 -257,-241 -257,-662 0,-422 257,-663 258,-241 708,-241 450,0 709,242 260,243 260,662 0,421 -258,662 -257,241 -711,241 z m -631,268 q -406,100 -633,378 -226,279 -226,679 0,559 398,884 399,325 1092,325 697,0 1094,-325 397,-325 397,-884 0,-400 -227,-679 -226,-278 -629,-378 456,-106 710,-416 255,-309 255,-755 Q 3634,634 3220,271 2806,-91 2034,-91 1263,-91 848,271 434,634 434,1313 q 0,446 256,755 257,310 713,416 z m -231,997 q 0,-362 226,-565 227,-203 636,-203 407,0 636,203 230,203 230,565 0,363 -230,566 -229,203 -636,203 -409,0 -636,-203 -226,-203 -226,-566 z"
       transform="scale(0.015625)" />
    <path
       id="DejaVuSans-25-3"
       d="m 4653,2053 q -272,0 -427,-231 -154,-231 -154,-644 0,-406 154,-639 155,-233 427,-233 266,0 420,233 155,233 155,639 0,410 -155,642 -154,233 -420,233 z m 0,397 q 494,0 784,-344 291,-343 291,-928 0,-584 -292,-927 -292,-342 -783,-342 -500,0 -791,342 -290,343 -290,927 0,588 292,930 292,342 789,342 z M 1428,4353 q -269,0 -424,-233 -154,-232 -154,-639 0,-412 153,-644 153,-231 425,-231 272,0 426,231 155,232 155,644 0,403 -156,637 -156,235 -425,235 z m 2822,397 h 500 L 1831,-91 h -500 z m -2822,0 q 494,0 787,-342 294,-342 294,-927 0,-590 -292,-931 -292,-341 -789,-341 -497,0 -786,342 -289,343 -289,930 0,582 290,925 291,344 785,344 z"
       transform="scale(0.015625)" />
    <clipPath
       id="p45ed2f3dec">
      <rect
         x="75.731247"
         y="10.865748"
         width="357.12"
         height="266.112"
         id="rect3664" />
    </clipPath>
  </defs>
  <defs
     id="defs807">
    <clipPath
       id="p87aa1f1fdc">
      <rect
         x="63.006248"
         y="66.017441"
         width="357.12"
         height="266.112"
         id="rect804" />
    </clipPath>
  </defs>
  <g
     id="figure_1"
     transform="translate(2.7895932,-1.3176315)">
    <g
       id="patch_1">
      <path
         d="M 0,398.14688 H 427.32625 V 0 H 0 Z"
         style="fill:#ffffff"
         id="path2374" />
    </g>
    <g
       id="axes_1">
      <g
         id="patch_2">
        <path
           d="m 63.00625,332.12944 h 357.12 V 66.017437 h -357.12 z"
           style="fill:#ffffff"
           id="path2377" />
      </g>
      <g
         id="matplotlib.axis_1">
        <g
           id="xtick_3">
          <g
             id="line2d_3">
            <g
               id="g2413">
              <use
                 xlink:href="#ma2ca7d9c0f"
                 x="286.20624"
                 y="332.12943"
                 style="stroke:#000000;stroke-width:0.8"
                 id="use2411"
                 width="100%"
                 height="100%" />
            </g>
          </g>
        </g>
        <g
           id="xtick_4">
          <g
             id="line2d_4">
            <g
               id="g2427">
              <use
                 xlink:href="#ma2ca7d9c0f"
                 x="375.48624"
                 y="332.12943"
                 style="stroke:#000000;stroke-width:0.8"
                 id="use2425"
                 width="100%"
                 height="100%" />
            </g>
          </g>
        </g>
        <g
           id="text_5"
           transform="translate(-2.753068,61.112637)">
          <!-- SA scope ratio (m, r, g) -->
          <g
             transform="matrix(0.2,0,0,-0.2,125.55531,377.68256)"
             id="g2506">
            <defs
               id="defs2456">
              <path
                 id="path2847"
                 d="m 3425,4513 v -616 q -359,172 -678,256 -319,85 -616,85 -515,0 -795,-200 -280,-200 -280,-569 0,-310 186,-468 186,-157 705,-254 l 381,-78 q 706,-135 1042,-474 336,-339 336,-907 0,-679 -455,-1029 -454,-350 -1332,-350 -331,0 -705,75 -373,75 -773,222 v 650 q 384,-215 753,-325 369,-109 725,-109 540,0 834,212 294,213 294,607 0,343 -211,537 -211,194 -692,291 l -385,75 q -706,140 -1022,440 -315,300 -315,835 0,619 436,975 436,356 1201,356 329,0 669,-60 341,-59 697,-177 z"
                 transform="scale(0.015625)" />
              <path
                 id="path2849"
                 d="M 2188,4044 1331,1722 h 1716 z m -357,622 h 716 L 4325,0 H 3669 L 3244,1197 H 1141 L 716,0 H 50 Z"
                 transform="scale(0.015625)" />
              <path
                 id="path2851"
                 transform="scale(0.015625)"
                 d="" />
              <path
                 id="path2853"
                 d="m 2834,3397 v -544 q -243,125 -506,187 -262,63 -544,63 -428,0 -642,-131 -214,-131 -214,-394 0,-200 153,-314 153,-114 616,-217 l 197,-44 q 612,-131 870,-370 258,-239 258,-667 0,-488 -386,-773 Q 2250,-91 1575,-91 1294,-91 989,-36 684,19 347,128 v 594 q 319,-166 628,-249 309,-82 613,-82 406,0 624,139 219,139 219,392 0,234 -158,359 -157,125 -692,241 l -200,47 q -534,112 -772,345 -237,233 -237,639 0,494 350,762 350,269 994,269 318,0 599,-47 282,-46 519,-140 z"
                 transform="scale(0.015625)" />
              <path
                 id="path2855"
                 d="m 3122,3366 v -538 q -244,135 -489,202 -245,67 -495,67 -560,0 -870,-355 -309,-354 -309,-995 0,-641 309,-996 310,-354 870,-354 250,0 495,67 245,67 489,202 V 134 Q 2881,22 2623,-34 2366,-91 2075,-91 1284,-91 818,406 353,903 353,1747 q 0,856 470,1346 471,491 1290,491 265,0 518,-55 253,-54 491,-163 z"
                 transform="scale(0.015625)" />
              <path
                 id="path2857"
                 d="m 1959,3097 q -462,0 -731,-361 -269,-361 -269,-989 0,-628 267,-989 268,-361 733,-361 460,0 728,362 269,363 269,988 0,622 -269,986 -268,364 -728,364 z m 0,487 q 750,0 1178,-488 429,-487 429,-1349 Q 3566,888 3137,398 2709,-91 1959,-91 1206,-91 779,398 353,888 353,1747 q 0,862 426,1349 427,488 1180,488 z"
                 transform="scale(0.015625)" />
              <path
                 id="path2859"
                 d="M 1159,525 V -1331 H 581 v 4831 h 578 v -531 q 182,312 458,463 277,152 661,152 638,0 1036,-506 399,-506 399,-1331 0,-825 -399,-1332 -398,-506 -1036,-506 -384,0 -661,152 -276,152 -458,464 z m 1957,1222 q 0,634 -261,995 -261,361 -717,361 -457,0 -718,-361 -261,-361 -261,-995 0,-634 261,-995 261,-361 718,-361 456,0 717,361 261,361 261,995 z"
                 transform="scale(0.015625)" />
              <path
                 id="path2861"
                 d="M 3597,1894 V 1613 H 953 q 38,-594 358,-905 320,-311 892,-311 331,0 642,81 311,81 618,244 V 178 Q 3153,47 2828,-22 2503,-91 2169,-91 1331,-91 842,396 353,884 353,1716 q 0,859 464,1363 464,505 1252,505 706,0 1117,-455 411,-454 411,-1235 z m -575,169 q -6,471 -264,752 -258,282 -683,282 -481,0 -770,-272 -289,-272 -333,-766 z"
                 transform="scale(0.015625)" />
              <path
                 id="path2863"
                 d="m 2631,2963 q -97,56 -211,82 -114,27 -251,27 -488,0 -749,-317 -261,-317 -261,-911 V 0 H 581 v 3500 h 578 v -544 q 182,319 472,473 291,155 707,155 59,0 131,-8 72,-7 159,-23 z"
                 transform="scale(0.015625)" />
              <path
                 id="path2865"
                 d="m 2194,1759 q -697,0 -966,-159 -269,-159 -269,-544 0,-306 202,-486 202,-179 548,-179 479,0 768,339 289,339 289,901 v 128 z m 1147,238 V 0 H 2766 V 531 Q 2569,213 2275,61 1981,-91 1556,-91 q -537,0 -855,302 -317,302 -317,808 0,590 395,890 396,300 1180,300 h 807 v 57 q 0,397 -261,614 -261,217 -733,217 -300,0 -585,-72 -284,-72 -546,-216 v 532 q 315,122 612,182 297,61 578,61 760,0 1135,-394 375,-393 375,-1193 z"
                 transform="scale(0.015625)" />
              <path
                 id="path2867"
                 d="M 1172,4494 V 3500 H 2356 V 3053 H 1172 V 1153 q 0,-428 117,-550 117,-122 477,-122 h 590 V 0 H 1766 Q 1100,0 847,248 594,497 594,1153 V 3053 H 172 v 447 h 422 v 994 z"
                 transform="scale(0.015625)" />
              <path
                 id="path2869"
                 d="m 603,3500 h 575 V 0 H 603 Z m 0,1363 h 575 V 4134 H 603 Z"
                 transform="scale(0.015625)" />
              <path
                 id="path2871"
                 d="m 1984,4856 q -418,-718 -622,-1422 -203,-703 -203,-1425 0,-721 205,-1429 205,-708 620,-1424 h -500 q -468,735 -701,1444 -233,709 -233,1409 0,697 231,1403 232,707 703,1444 z"
                 transform="scale(0.015625)" />
              <path
                 id="path2873"
                 d="m 3328,2828 q 216,388 516,572 300,184 706,184 547,0 844,-383 297,-382 297,-1088 V 0 h -578 v 2094 q 0,503 -179,746 -178,244 -543,244 -447,0 -707,-297 -259,-296 -259,-809 V 0 h -578 v 2094 q 0,506 -178,748 -178,242 -550,242 -441,0 -701,-298 -259,-298 -259,-808 V 0 H 581 v 3500 h 578 v -544 q 197,322 472,475 275,153 653,153 382,0 649,-194 267,-193 395,-562 z"
                 transform="scale(0.015625)" />
              <path
                 id="path2875"
                 d="m 750,794 h 659 V 256 L 897,-744 H 494 L 750,256 Z"
                 transform="scale(0.015625)" />
              <path
                 id="path2877"
                 d="m 2906,1791 q 0,625 -258,968 -257,344 -723,344 -462,0 -720,-344 -258,-343 -258,-968 0,-622 258,-966 258,-344 720,-344 466,0 723,344 258,344 258,966 z M 3481,434 q 0,-893 -397,-1329 -396,-436 -1215,-436 -303,0 -572,45 -269,45 -522,139 v 559 q 253,-137 500,-202 247,-66 503,-66 566,0 847,295 281,295 281,892 V 616 Q 2728,306 2450,153 2172,0 1784,0 1141,0 747,490 353,981 353,1791 q 0,812 394,1302 394,491 1037,491 388,0 666,-153 278,-153 456,-462 v 531 h 575 z"
                 transform="scale(0.015625)" />
              <path
                 id="path2879"
                 d="m 513,4856 h 500 q 468,-737 701,-1444 233,-706 233,-1403 0,-700 -233,-1409 -233,-709 -701,-1444 H 513 q 415,716 620,1424 205,708 205,1429 0,722 -205,1425 -205,704 -620,1422 z"
                 transform="scale(0.015625)" />
            </defs>
            <use
               xlink:href="#DejaVuSans-53"
               id="use2458"
               x="0"
               y="0"
               width="100%"
               height="100%" />
            <use
               xlink:href="#DejaVuSans-41"
               x="65.351562"
               id="use2460"
               y="0"
               width="100%"
               height="100%" />
            <use
               xlink:href="#DejaVuSans-20"
               x="133.75977"
               id="use2462"
               y="0"
               width="100%"
               height="100%" />
            <use
               xlink:href="#DejaVuSans-73"
               x="165.54688"
               id="use2464"
               y="0"
               width="100%"
               height="100%" />
            <use
               xlink:href="#DejaVuSans-63"
               x="217.64648"
               id="use2466"
               y="0"
               width="100%"
               height="100%" />
            <use
               xlink:href="#DejaVuSans-6f"
               x="272.62695"
               id="use2468"
               y="0"
               width="100%"
               height="100%" />
            <use
               xlink:href="#DejaVuSans-70"
               x="333.80859"
               id="use2470"
               y="0"
               width="100%"
               height="100%" />
            <use
               xlink:href="#DejaVuSans-65"
               x="397.28516"
               id="use2472"
               y="0"
               width="100%"
               height="100%" />
            <use
               xlink:href="#DejaVuSans-20"
               x="458.80859"
               id="use2474"
               y="0"
               width="100%"
               height="100%" />
            <use
               xlink:href="#DejaVuSans-72"
               x="490.5957"
               id="use2476"
               y="0"
               width="100%"
               height="100%" />
            <use
               xlink:href="#DejaVuSans-61"
               x="531.70898"
               id="use2478"
               y="0"
               width="100%"
               height="100%" />
            <use
               xlink:href="#DejaVuSans-74"
               x="592.98828"
               id="use2480"
               y="0"
               width="100%"
               height="100%" />
            <use
               xlink:href="#DejaVuSans-69"
               x="632.19727"
               id="use2482"
               y="0"
               width="100%"
               height="100%" />
            <use
               xlink:href="#DejaVuSans-6f"
               x="659.98047"
               id="use2484"
               y="0"
               width="100%"
               height="100%" />
            <use
               xlink:href="#DejaVuSans-20"
               x="721.16211"
               id="use2486"
               y="0"
               width="100%"
               height="100%" />
            <use
               xlink:href="#DejaVuSans-28"
               x="752.94922"
               id="use2488"
               y="0"
               width="100%"
               height="100%" />
            <use
               xlink:href="#DejaVuSans-6d"
               x="791.96289"
               id="use2490"
               y="0"
               width="100%"
               height="100%" />
            <use
               xlink:href="#DejaVuSans-2c"
               x="889.375"
               id="use2492"
               y="0"
               width="100%"
               height="100%" />
            <use
               xlink:href="#DejaVuSans-20"
               x="921.16211"
               id="use2494"
               y="0"
               width="100%"
               height="100%" />
            <use
               xlink:href="#DejaVuSans-72"
               x="952.94922"
               id="use2496"
               y="0"
               width="100%"
               height="100%" />
            <use
               xlink:href="#DejaVuSans-2c"
               x="994.0625"
               id="use2498"
               y="0"
               width="100%"
               height="100%" />
            <use
               xlink:href="#DejaVuSans-20"
               x="1025.8496"
               id="use2500"
               y="0"
               width="100%"
               height="100%" />
            <use
               xlink:href="#DejaVuSans-67"
               x="1057.6367"
               id="use2502"
               y="0"
               width="100%"
               height="100%" />
            <use
               xlink:href="#DejaVuSans-29"
               x="1121.1133"
               id="use2504"
               y="0"
               width="100%"
               height="100%" />
          </g>
        </g>
      </g>
      <g
         id="matplotlib.axis_2">
        <g
           id="ytick_1">
          <g
             id="line2d_5">
            <defs
               id="defs2511">
              <path
                 id="path2909"
                 d="M 0,0 H -3.5"
                 style="stroke:#000000;stroke-width:0.8" />
            </defs>
            <g
               id="g2515">
              <use
                 xlink:href="#m20133040b9"
                 x="63.006248"
                 y="326.59882"
                 style="stroke:#000000;stroke-width:0.8"
                 id="use2513"
                 width="100%"
                 height="100%" />
            </g>
          </g>
          <g
             id="text_6">
            <!-- 20 -->
            <g
               transform="matrix(0.2,0,0,-0.2,30.55625,334.19726)"
               id="g2525">
              <defs
                 id="defs2519">
                <path
                   id="path2915"
                   d="m 2034,4250 q -487,0 -733,-480 -245,-479 -245,-1442 0,-959 245,-1439 246,-480 733,-480 491,0 736,480 246,480 246,1439 0,963 -246,1442 -245,480 -736,480 z m 0,500 q 785,0 1199,-621 414,-620 414,-1801 0,-1178 -414,-1799 -414,-620 -1199,-620 -784,0 -1198,620 -414,621 -414,1799 0,1181 414,1801 414,621 1198,621 z"
                   transform="scale(0.015625)" />
              </defs>
              <use
                 xlink:href="#DejaVuSans-32"
                 id="use2521"
                 x="0"
                 y="0"
                 width="100%"
                 height="100%" />
              <use
                 xlink:href="#DejaVuSans-30"
                 x="63.623047"
                 id="use2523"
                 y="0"
                 width="100%"
                 height="100%" />
            </g>
          </g>
        </g>
        <g
           id="ytick_2">
          <g
             id="line2d_6">
            <g
               id="g2531">
              <use
                 xlink:href="#m20133040b9"
                 x="63.006248"
                 y="255.23599"
                 style="stroke:#000000;stroke-width:0.8"
                 id="use2529"
                 width="100%"
                 height="100%" />
            </g>
          </g>
          <g
             id="text_7">
            <!-- 25 -->
            <g
               transform="matrix(0.2,0,0,-0.2,30.55625,262.83442)"
               id="g2541">
              <defs
                 id="defs2535">
                <path
                   id="path2926"
                   d="M 691,4666 H 3169 V 4134 H 1269 V 2991 q 137,47 274,70 138,23 276,23 781,0 1237,-428 457,-428 457,-1159 Q 3513,744 3044,326 2575,-91 1722,-91 1428,-91 1123,-41 819,9 494,109 v 635 q 281,-153 581,-228 300,-75 634,-75 541,0 856,284 316,284 316,772 0,487 -316,771 -315,285 -856,285 -253,0 -505,-56 -251,-56 -513,-175 z"
                   transform="scale(0.015625)" />
              </defs>
              <use
                 xlink:href="#DejaVuSans-32"
                 id="use2537"
                 x="0"
                 y="0"
                 width="100%"
                 height="100%" />
              <use
                 xlink:href="#DejaVuSans-35"
                 x="63.623047"
                 id="use2539"
                 y="0"
                 width="100%"
                 height="100%" />
            </g>
          </g>
        </g>
        <g
           id="ytick_3">
          <g
             id="line2d_7">
            <g
               id="g2547">
              <use
                 xlink:href="#m20133040b9"
                 x="63.006248"
                 y="183.87315"
                 style="stroke:#000000;stroke-width:0.8"
                 id="use2545"
                 width="100%"
                 height="100%" />
            </g>
          </g>
          <g
             id="text_8">
            <!-- 30 -->
            <g
               transform="matrix(0.2,0,0,-0.2,30.55625,191.47159)"
               id="g2554">
              <use
                 xlink:href="#DejaVuSans-33"
                 id="use2550"
                 x="0"
                 y="0"
                 width="100%"
                 height="100%" />
              <use
                 xlink:href="#DejaVuSans-30"
                 x="63.623047"
                 id="use2552"
                 y="0"
                 width="100%"
                 height="100%" />
            </g>
          </g>
        </g>
        <g
           id="ytick_4">
          <g
             id="line2d_8">
            <g
               id="g2560">
              <use
                 xlink:href="#m20133040b9"
                 x="63.006248"
                 y="112.51032"
                 style="stroke:#000000;stroke-width:0.8"
                 id="use2558"
                 width="100%"
                 height="100%" />
            </g>
          </g>
          <g
             id="text_9">
            <!-- 35 -->
            <g
               transform="matrix(0.2,0,0,-0.2,30.55625,120.10876)"
               id="g2567">
              <use
                 xlink:href="#DejaVuSans-33"
                 id="use2563"
                 x="0"
                 y="0"
                 width="100%"
                 height="100%" />
              <use
                 xlink:href="#DejaVuSans-35"
                 x="63.623047"
                 id="use2565"
                 y="0"
                 width="100%"
                 height="100%" />
            </g>
          </g>
        </g>
        <g
           id="text_10">
          <!-- harmonic synchronization time (sim s) -->
          <g
             transform="matrix(0,-0.2,-0.2,0,22.396875,390.94687)"
             id="g2651">
            <defs
               id="defs2575">
              <path
                 id="path2950"
                 d="M 3513,2113 V 0 h -575 v 2094 q 0,497 -194,743 -194,247 -581,247 -466,0 -735,-297 -269,-296 -269,-809 V 0 H 581 v 4863 h 578 V 2956 q 207,316 486,472 280,156 646,156 603,0 912,-373 310,-373 310,-1098 z"
                 transform="scale(0.015625)" />
              <path
                 id="path2952"
                 d="M 3513,2113 V 0 h -575 v 2094 q 0,497 -194,743 -194,247 -581,247 -466,0 -735,-297 -269,-296 -269,-809 V 0 H 581 v 3500 h 578 v -544 q 207,316 486,472 280,156 646,156 603,0 912,-373 310,-373 310,-1098 z"
                 transform="scale(0.015625)" />
              <path
                 id="path2954"
                 d="m 2059,-325 q -243,-625 -475,-815 -231,-191 -618,-191 H 506 v 481 h 338 q 237,0 368,113 132,112 291,531 L 1606,56 191,3500 H 800 L 1894,763 2988,3500 h 609 z"
                 transform="scale(0.015625)" />
              <path
                 id="path2956"
                 d="M 353,3500 H 3084 V 2975 L 922,459 H 3084 V 0 H 275 V 525 L 2438,3041 H 353 Z"
                 transform="scale(0.015625)" />
            </defs>
            <use
               xlink:href="#DejaVuSans-68"
               id="use2577"
               x="0"
               y="0"
               width="100%"
               height="100%" />
            <use
               xlink:href="#DejaVuSans-61"
               x="63.378906"
               id="use2579"
               y="0"
               width="100%"
               height="100%" />
            <use
               xlink:href="#DejaVuSans-72"
               x="124.6582"
               id="use2581"
               y="0"
               width="100%"
               height="100%" />
            <use
               xlink:href="#DejaVuSans-6d"
               x="164.02148"
               id="use2583"
               y="0"
               width="100%"
               height="100%" />
            <use
               xlink:href="#DejaVuSans-6f"
               x="261.43359"
               id="use2585"
               y="0"
               width="100%"
               height="100%" />
            <use
               xlink:href="#DejaVuSans-6e"
               x="322.61523"
               id="use2587"
               y="0"
               width="100%"
               height="100%" />
            <use
               xlink:href="#DejaVuSans-69"
               x="385.99414"
               id="use2589"
               y="0"
               width="100%"
               height="100%" />
            <use
               xlink:href="#DejaVuSans-63"
               x="413.77734"
               id="use2591"
               y="0"
               width="100%"
               height="100%" />
            <use
               xlink:href="#DejaVuSans-20"
               x="468.75781"
               id="use2593"
               y="0"
               width="100%"
               height="100%" />
            <use
               xlink:href="#DejaVuSans-73"
               x="500.54492"
               id="use2595"
               y="0"
               width="100%"
               height="100%" />
            <use
               xlink:href="#DejaVuSans-79"
               x="552.64453"
               id="use2597"
               y="0"
               width="100%"
               height="100%" />
            <use
               xlink:href="#DejaVuSans-6e"
               x="611.82422"
               id="use2599"
               y="0"
               width="100%"
               height="100%" />
            <use
               xlink:href="#DejaVuSans-63"
               x="675.20312"
               id="use2601"
               y="0"
               width="100%"
               height="100%" />
            <use
               xlink:href="#DejaVuSans-68"
               x="730.18359"
               id="use2603"
               y="0"
               width="100%"
               height="100%" />
            <use
               xlink:href="#DejaVuSans-72"
               x="793.5625"
               id="use2605"
               y="0"
               width="100%"
               height="100%" />
            <use
               xlink:href="#DejaVuSans-6f"
               x="832.42578"
               id="use2607"
               y="0"
               width="100%"
               height="100%" />
            <use
               xlink:href="#DejaVuSans-6e"
               x="893.60742"
               id="use2609"
               y="0"
               width="100%"
               height="100%" />
            <use
               xlink:href="#DejaVuSans-69"
               x="956.98633"
               id="use2611"
               y="0"
               width="100%"
               height="100%" />
            <use
               xlink:href="#DejaVuSans-7a"
               x="984.76953"
               id="use2613"
               y="0"
               width="100%"
               height="100%" />
            <use
               xlink:href="#DejaVuSans-61"
               x="1037.2598"
               id="use2615"
               y="0"
               width="100%"
               height="100%" />
            <use
               xlink:href="#DejaVuSans-74"
               x="1098.5391"
               id="use2617"
               y="0"
               width="100%"
               height="100%" />
            <use
               xlink:href="#DejaVuSans-69"
               x="1137.748"
               id="use2619"
               y="0"
               width="100%"
               height="100%" />
            <use
               xlink:href="#DejaVuSans-6f"
               x="1165.5312"
               id="use2621"
               y="0"
               width="100%"
               height="100%" />
            <use
               xlink:href="#DejaVuSans-6e"
               x="1226.7129"
               id="use2623"
               y="0"
               width="100%"
               height="100%" />
            <use
               xlink:href="#DejaVuSans-20"
               x="1290.0918"
               id="use2625"
               y="0"
               width="100%"
               height="100%" />
            <use
               xlink:href="#DejaVuSans-74"
               x="1321.8789"
               id="use2627"
               y="0"
               width="100%"
               height="100%" />
            <use
               xlink:href="#DejaVuSans-69"
               x="1361.0879"
               id="use2629"
               y="0"
               width="100%"
               height="100%" />
            <use
               xlink:href="#DejaVuSans-6d"
               x="1388.8711"
               id="use2631"
               y="0"
               width="100%"
               height="100%" />
            <use
               xlink:href="#DejaVuSans-65"
               x="1486.2832"
               id="use2633"
               y="0"
               width="100%"
               height="100%" />
            <use
               xlink:href="#DejaVuSans-20"
               x="1547.8066"
               id="use2635"
               y="0"
               width="100%"
               height="100%" />
            <use
               xlink:href="#DejaVuSans-28"
               x="1579.5938"
               id="use2637"
               y="0"
               width="100%"
               height="100%" />
            <use
               xlink:href="#DejaVuSans-73"
               x="1618.6074"
               id="use2639"
               y="0"
               width="100%"
               height="100%" />
            <use
               xlink:href="#DejaVuSans-69"
               x="1670.707"
               id="use2641"
               y="0"
               width="100%"
               height="100%" />
            <use
               xlink:href="#DejaVuSans-6d"
               x="1698.4902"
               id="use2643"
               y="0"
               width="100%"
               height="100%" />
            <use
               xlink:href="#DejaVuSans-20"
               x="1795.9023"
               id="use2645"
               y="0"
               width="100%"
               height="100%" />
            <use
               xlink:href="#DejaVuSans-73"
               x="1827.6895"
               id="use2647"
               y="0"
               width="100%"
               height="100%" />
            <use
               xlink:href="#DejaVuSans-29"
               x="1879.7891"
               id="use2649"
               y="0"
               width="100%"
               height="100%" />
          </g>
        </g>
      </g>
      <g
         id="line2d_9">
        <path
           d="m 87.55825,319.89071 h 40.176 v -1.42726 h -40.176 v 1.42726"
           clip-path="url(#p53bd9ff492)"
           style="fill:none;stroke:#000000;stroke-linecap:square"
           id="path2655" />
      </g>
      <g
         id="line2d_10">
        <path
           d="m 107.64625,319.89071 v 0.14273"
           clip-path="url(#p53bd9ff492)"
           style="fill:none;stroke:#000000;stroke-linecap:square"
           id="path2658" />
      </g>
      <g
         id="line2d_11">
        <path
           d="m 107.64625,318.46345 v -1.28453"
           clip-path="url(#p53bd9ff492)"
           style="fill:none;stroke:#000000;stroke-linecap:square"
           id="path2661" />
      </g>
      <g
         id="line2d_12">
        <path
           d="m 97.60225,320.03344 h 20.088"
           clip-path="url(#p53bd9ff492)"
           style="fill:none;stroke:#000000;stroke-linecap:square"
           id="path2664" />
      </g>
      <g
         id="line2d_13">
        <path
           d="m 97.60225,317.17892 h 20.088"
           clip-path="url(#p53bd9ff492)"
           style="fill:none;stroke:#000000;stroke-linecap:square"
           id="path2667" />
      </g>
      <g
         id="line2d_14" />
      <g
         id="line2d_15">
        <path
           d="m 176.83825,259.2323 h 40.176 V 138.48639 h -40.176 V 259.2323"
           clip-path="url(#p53bd9ff492)"
           style="fill:none;stroke:#000000;stroke-linecap:square"
           id="path2671" />
      </g>
      <g
         id="line2d_16">
        <path
           d="m 196.92625,259.2323 v 60.37296"
           clip-path="url(#p53bd9ff492)"
           style="fill:none;stroke:#000000;stroke-linecap:square"
           id="path2674" />
      </g>
      <g
         id="line2d_17">
        <path
           d="M 196.92625,138.48639 V 78.113437"
           clip-path="url(#p53bd9ff492)"
           style="fill:none;stroke:#000000;stroke-linecap:square"
           id="path2677" />
      </g>
      <g
         id="line2d_18">
        <path
           d="m 186.88225,319.60526 h 20.088"
           clip-path="url(#p53bd9ff492)"
           style="fill:none;stroke:#000000;stroke-linecap:square"
           id="path2680" />
      </g>
      <g
         id="line2d_19">
        <path
           d="m 186.88225,78.113437 h 20.088"
           clip-path="url(#p53bd9ff492)"
           style="fill:none;stroke:#000000;stroke-linecap:square"
           id="path2683" />
      </g>
      <g
         id="line2d_20" />
      <g
         id="line2d_21">
        <path
           d="m 266.11825,278.78572 h 40.176 v 0 h -40.176 v 0"
           clip-path="url(#p53bd9ff492)"
           style="fill:none;stroke:#000000;stroke-linecap:square"
           id="path2687" />
      </g>
      <g
         id="line2d_22">
        <path
           d="m 286.20625,278.78572 v 0"
           clip-path="url(#p53bd9ff492)"
           style="fill:none;stroke:#000000;stroke-linecap:square"
           id="path2690" />
      </g>
      <g
         id="line2d_23">
        <path
           d="m 286.20625,278.78572 v 0"
           clip-path="url(#p53bd9ff492)"
           style="fill:none;stroke:#000000;stroke-linecap:square"
           id="path2693" />
      </g>
      <g
         id="line2d_24">
        <path
           d="m 276.16225,278.78572 h 20.088"
           clip-path="url(#p53bd9ff492)"
           style="fill:none;stroke:#000000;stroke-linecap:square"
           id="path2696" />
      </g>
      <g
         id="line2d_25">
        <path
           d="m 276.16225,278.78572 h 20.088"
           clip-path="url(#p53bd9ff492)"
           style="fill:none;stroke:#000000;stroke-linecap:square"
           id="path2699" />
      </g>
      <g
         id="line2d_26" />
      <g
         id="line2d_27">
        <path
           d="m 355.39825,319.89071 h 40.176 v -0.42818 h -40.176 v 0.42818"
           clip-path="url(#p53bd9ff492)"
           style="fill:none;stroke:#000000;stroke-linecap:square"
           id="path2703" />
      </g>
      <g
         id="line2d_28">
        <path
           d="m 375.48625,319.89071 v 0.14273"
           clip-path="url(#p53bd9ff492)"
           style="fill:none;stroke:#000000;stroke-linecap:square"
           id="path2706" />
      </g>
      <g
         id="line2d_29">
        <path
           d="m 375.48625,319.46253 v -0.5709"
           clip-path="url(#p53bd9ff492)"
           style="fill:none;stroke:#000000;stroke-linecap:square"
           id="path2709" />
      </g>
      <g
         id="line2d_30">
        <path
           d="m 365.44225,320.03344 h 20.088"
           clip-path="url(#p53bd9ff492)"
           style="fill:none;stroke:#000000;stroke-linecap:square"
           id="path2712" />
      </g>
      <g
         id="line2d_31">
        <path
           d="m 365.44225,318.89163 h 20.088"
           clip-path="url(#p53bd9ff492)"
           style="fill:none;stroke:#000000;stroke-linecap:square"
           id="path2715" />
      </g>
      <g
         id="line2d_32">
        <defs
           id="defs2719">
          <path
             id="path3042"
             d="M 0,3 C 0.795609,3 1.55874,2.683901 2.12132,2.12132 2.683901,1.55874 3,0.795609 3,0 3,-0.795609 2.683901,-1.55874 2.12132,-2.12132 1.55874,-2.683901 0.795609,-3 0,-3 -0.795609,-3 -1.55874,-2.683901 -2.12132,-2.12132 -2.683901,-1.55874 -3,-0.795609 -3,0 -3,0.795609 -2.683901,1.55874 -2.12132,2.12132 -1.55874,2.683901 -0.795609,3 0,3 Z"
             style="stroke:#000000" />
        </defs>
        <g
           clip-path="url(#p53bd9ff492)"
           id="g2729">
          <use
             xlink:href="#ma596c8e698"
             x="375.48624"
             y="317.89255"
             style="fill-opacity:0;stroke:#000000"
             id="use2721"
             width="100%"
             height="100%" />
          <use
             xlink:href="#ma596c8e698"
             x="375.48624"
             y="317.32166"
             style="fill-opacity:0;stroke:#000000"
             id="use2723"
             width="100%"
             height="100%" />
          <use
             xlink:href="#ma596c8e698"
             x="375.48624"
             y="318.60617"
             style="fill-opacity:0;stroke:#000000"
             id="use2725"
             width="100%"
             height="100%" />
          <use
             xlink:href="#ma596c8e698"
             x="375.48624"
             y="317.89255"
             style="fill-opacity:0;stroke:#000000"
             id="use2727"
             width="100%"
             height="100%" />
        </g>
      </g>
      <g
         id="line2d_33">
        <path
           d="m 87.55825,319.60526 h 40.176"
           clip-path="url(#p53bd9ff492)"
           style="fill:none;stroke:#ff7f0e;stroke-linecap:square"
           id="path2732" />
      </g>
      <g
         id="line2d_34">
        <path
           d="m 176.83825,198.85935 h 40.176"
           clip-path="url(#p53bd9ff492)"
           style="fill:none;stroke:#ff7f0e;stroke-linecap:square"
           id="path2735" />
      </g>
      <g
         id="line2d_35">
        <path
           d="m 266.11825,278.78572 h 40.176"
           clip-path="url(#p53bd9ff492)"
           style="fill:none;stroke:#ff7f0e;stroke-linecap:square"
           id="path2738" />
      </g>
      <g
         id="line2d_36">
        <path
           d="m 355.39825,319.67662 h 40.176"
           clip-path="url(#p53bd9ff492)"
           style="fill:none;stroke:#ff7f0e;stroke-linecap:square"
           id="path2741" />
      </g>
      <g
         id="patch_3">
        <path
           d="M 63.00625,332.12944 V 66.017437"
           style="fill:none;stroke:#000000;stroke-width:0.8;stroke-linecap:square;stroke-linejoin:miter"
           id="path2744" />
      </g>
      <g
         id="patch_4">
        <path
           d="M 420.12625,332.12944 V 66.017437"
           style="fill:none;stroke:#000000;stroke-width:0.8;stroke-linecap:square;stroke-linejoin:miter"
           id="path2747" />
      </g>
      <g
         id="patch_5">
        <path
           d="m 63.00625,332.12944 h 357.12"
           style="fill:none;stroke:#000000;stroke-width:0.8;stroke-linecap:square;stroke-linejoin:miter"
           id="path2750" />
      </g>
      <g
         id="patch_6">
        <path
           d="m 63.00625,66.017437 h 357.12"
           style="fill:none;stroke:#000000;stroke-width:0.8;stroke-linecap:square;stroke-linejoin:miter"
           id="path2753" />
      </g>
    </g>
  </g>
  <g
     id="figure_1-8"
     transform="translate(426.33638,53.834074)">
    <g
       id="patch_1-0">
      <path
         d="M 0,333.89025 H 440.05125 V 0 H 0 Z"
         style="fill:#ffffff"
         id="path3377" />
    </g>
    <g
       id="axes_1-2">
      <g
         id="patch_2-4">
        <path
           d="m 75.73125,276.97775 h 357.12 V 10.865748 h -357.12 z"
           style="fill:#ffffff"
           id="path3380" />
      </g>
      <g
         id="patch_3-0">
        <path
           d="M 91.963977,276.97775 H 160.3123 v 0 z"
           clip-path="url(#p45ed2f3dec)"
           style="fill:#1f77b4"
           id="path3383" />
      </g>
      <g
         id="patch_4-0">
        <path
           d="m 177.39938,276.97775 h 68.34833 V 32.277058 h -68.34833 z"
           clip-path="url(#p45ed2f3dec)"
           style="fill:#1f77b4"
           id="path3386" />
      </g>
      <g
         id="patch_5-9">
        <path
           d="m 262.83479,276.97775 h 68.34833 V 23.537748 h -68.34833 z"
           clip-path="url(#p45ed2f3dec)"
           style="fill:#1f77b4"
           id="path3389" />
      </g>
      <g
         id="patch_6-5">
        <path
           d="m 348.2702,276.97775 h 68.34832 v -8.4574 H 348.2702 Z"
           clip-path="url(#p45ed2f3dec)"
           style="fill:#1f77b4"
           id="path3392" />
      </g>
      <g
         id="matplotlib.axis_1-4">
        <g
           id="xtick_1-0">
          <g
             id="line2d_1-4">
            <defs
               id="defs3396">
              <path
                 id="path3715"
                 d="M 0,0 V 3.5"
                 style="stroke:#000000;stroke-width:0.8" />
            </defs>
            <g
               id="g3400">
              <use
                 xlink:href="#m442ab9e68f"
                 x="126.13814"
                 y="276.97775"
                 style="stroke:#000000;stroke-width:0.8"
                 id="use3398"
                 width="100%"
                 height="100%" />
            </g>
          </g>
        </g>
        <g
           id="xtick_2-3">
          <g
             id="line2d_2-9">
            <g
               id="g3414">
              <use
                 xlink:href="#m442ab9e68f"
                 x="211.57355"
                 y="276.97775"
                 style="stroke:#000000;stroke-width:0.8"
                 id="use3412"
                 width="100%"
                 height="100%" />
            </g>
          </g>
        </g>
        <g
           id="xtick_3-5">
          <g
             id="line2d_3-9">
            <g
               id="g3428">
              <use
                 xlink:href="#m442ab9e68f"
                 x="297.00894"
                 y="276.97775"
                 style="stroke:#000000;stroke-width:0.8"
                 id="use3426"
                 width="100%"
                 height="100%" />
            </g>
          </g>
        </g>
        <g
           id="xtick_4-4">
          <g
             id="line2d_4-8">
            <g
               id="g3442">
              <use
                 xlink:href="#m442ab9e68f"
                 x="382.44437"
                 y="276.97775"
                 style="stroke:#000000;stroke-width:0.8"
                 id="use3440"
                 width="100%"
                 height="100%" />
            </g>
          </g>
          <text
             xml:space="preserve"
             style="font-size:16px;line-height:1.25;font-family:Verdana;-inkscape-font-specification:Verdana;stroke-width:0.75;stroke-linecap:butt;stroke-linejoin:round"
             x="-101.03665"
             y="316.17392"
             id="text6112-2"
             transform="rotate(-30)"><tspan
               sodipodi:role="line"
               id="tspan6110-9"
               style="font-size:16px;stroke-width:0.75"
               x="-101.03665"
               y="316.17392">(1, 0, 0)</tspan></text>
          <text
             xml:space="preserve"
             style="font-size:16px;line-height:1.25;font-family:Verdana;-inkscape-font-specification:Verdana;stroke-width:0.75;stroke-linecap:butt;stroke-linejoin:round"
             x="-87.618591"
             y="362.68973"
             id="text6112-0-7"
             transform="rotate(-30)"><tspan
               sodipodi:role="line"
               id="tspan6110-6-9"
               style="font-size:16px;stroke-width:0.75"
               x="-87.618591"
               y="362.68973">(0.65, 0.25, 0.1)</tspan></text>
          <text
             xml:space="preserve"
             style="font-size:16px;line-height:1.25;font-family:Verdana;-inkscape-font-specification:Verdana;stroke-width:0.75;stroke-linecap:butt;stroke-linejoin:round"
             x="-12.922184"
             y="411.1001"
             id="text6112-0-6-6"
             transform="rotate(-30)"><tspan
               sodipodi:role="line"
               id="tspan6110-6-7-1"
               style="font-size:16px;stroke-width:0.75"
               x="-12.922184"
               y="411.1001">(0.1, 0.25, 0.65)</tspan></text>
          <text
             xml:space="preserve"
             style="font-size:16px;line-height:1.25;font-family:Verdana;-inkscape-font-specification:Verdana;stroke-width:0.75;stroke-linecap:butt;stroke-linejoin:round"
             x="129.54794"
             y="455.19034"
             id="text6112-0-6-1-1"
             transform="rotate(-30)"><tspan
               sodipodi:role="line"
               id="tspan6110-6-7-2-0"
               style="font-size:16px;stroke-width:0.75"
               x="129.54794"
               y="455.19034">(0, 0, 1)</tspan></text>
        </g>
        <g
           id="text_5-7"
           transform="translate(-0.71911203,61.494983)">
          <!-- SA scope ratio (m, r, g) -->
          <g
             transform="matrix(0.2,0,0,-0.2,138.28031,322.53087)"
             id="g3521">
            <defs
               id="defs3471">
              <path
                 id="path3758"
                 d="m 3425,4513 v -616 q -359,172 -678,256 -319,85 -616,85 -515,0 -795,-200 -280,-200 -280,-569 0,-310 186,-468 186,-157 705,-254 l 381,-78 q 706,-135 1042,-474 336,-339 336,-907 0,-679 -455,-1029 -454,-350 -1332,-350 -331,0 -705,75 -373,75 -773,222 v 650 q 384,-215 753,-325 369,-109 725,-109 540,0 834,212 294,213 294,607 0,343 -211,537 -211,194 -692,291 l -385,75 q -706,140 -1022,440 -315,300 -315,835 0,619 436,975 436,356 1201,356 329,0 669,-60 341,-59 697,-177 z"
                 transform="scale(0.015625)" />
              <path
                 id="path3760"
                 d="M 2188,4044 1331,1722 h 1716 z m -357,622 h 716 L 4325,0 H 3669 L 3244,1197 H 1141 L 716,0 H 50 Z"
                 transform="scale(0.015625)" />
              <path
                 id="path3762"
                 transform="scale(0.015625)"
                 d="" />
              <path
                 id="path3764"
                 d="m 2834,3397 v -544 q -243,125 -506,187 -262,63 -544,63 -428,0 -642,-131 -214,-131 -214,-394 0,-200 153,-314 153,-114 616,-217 l 197,-44 q 612,-131 870,-370 258,-239 258,-667 0,-488 -386,-773 Q 2250,-91 1575,-91 1294,-91 989,-36 684,19 347,128 v 594 q 319,-166 628,-249 309,-82 613,-82 406,0 624,139 219,139 219,392 0,234 -158,359 -157,125 -692,241 l -200,47 q -534,112 -772,345 -237,233 -237,639 0,494 350,762 350,269 994,269 318,0 599,-47 282,-46 519,-140 z"
                 transform="scale(0.015625)" />
              <path
                 id="path3766"
                 d="m 3122,3366 v -538 q -244,135 -489,202 -245,67 -495,67 -560,0 -870,-355 -309,-354 -309,-995 0,-641 309,-996 310,-354 870,-354 250,0 495,67 245,67 489,202 V 134 Q 2881,22 2623,-34 2366,-91 2075,-91 1284,-91 818,406 353,903 353,1747 q 0,856 470,1346 471,491 1290,491 265,0 518,-55 253,-54 491,-163 z"
                 transform="scale(0.015625)" />
              <path
                 id="path3768"
                 d="m 1959,3097 q -462,0 -731,-361 -269,-361 -269,-989 0,-628 267,-989 268,-361 733,-361 460,0 728,362 269,363 269,988 0,622 -269,986 -268,364 -728,364 z m 0,487 q 750,0 1178,-488 429,-487 429,-1349 Q 3566,888 3137,398 2709,-91 1959,-91 1206,-91 779,398 353,888 353,1747 q 0,862 426,1349 427,488 1180,488 z"
                 transform="scale(0.015625)" />
              <path
                 id="path3770"
                 d="M 1159,525 V -1331 H 581 v 4831 h 578 v -531 q 182,312 458,463 277,152 661,152 638,0 1036,-506 399,-506 399,-1331 0,-825 -399,-1332 -398,-506 -1036,-506 -384,0 -661,152 -276,152 -458,464 z m 1957,1222 q 0,634 -261,995 -261,361 -717,361 -457,0 -718,-361 -261,-361 -261,-995 0,-634 261,-995 261,-361 718,-361 456,0 717,361 261,361 261,995 z"
                 transform="scale(0.015625)" />
              <path
                 id="path3772"
                 d="M 3597,1894 V 1613 H 953 q 38,-594 358,-905 320,-311 892,-311 331,0 642,81 311,81 618,244 V 178 Q 3153,47 2828,-22 2503,-91 2169,-91 1331,-91 842,396 353,884 353,1716 q 0,859 464,1363 464,505 1252,505 706,0 1117,-455 411,-454 411,-1235 z m -575,169 q -6,471 -264,752 -258,282 -683,282 -481,0 -770,-272 -289,-272 -333,-766 z"
                 transform="scale(0.015625)" />
              <path
                 id="path3774"
                 d="m 2631,2963 q -97,56 -211,82 -114,27 -251,27 -488,0 -749,-317 -261,-317 -261,-911 V 0 H 581 v 3500 h 578 v -544 q 182,319 472,473 291,155 707,155 59,0 131,-8 72,-7 159,-23 z"
                 transform="scale(0.015625)" />
              <path
                 id="path3776"
                 d="m 2194,1759 q -697,0 -966,-159 -269,-159 -269,-544 0,-306 202,-486 202,-179 548,-179 479,0 768,339 289,339 289,901 v 128 z m 1147,238 V 0 H 2766 V 531 Q 2569,213 2275,61 1981,-91 1556,-91 q -537,0 -855,302 -317,302 -317,808 0,590 395,890 396,300 1180,300 h 807 v 57 q 0,397 -261,614 -261,217 -733,217 -300,0 -585,-72 -284,-72 -546,-216 v 532 q 315,122 612,182 297,61 578,61 760,0 1135,-394 375,-393 375,-1193 z"
                 transform="scale(0.015625)" />
              <path
                 id="path3778"
                 d="M 1172,4494 V 3500 H 2356 V 3053 H 1172 V 1153 q 0,-428 117,-550 117,-122 477,-122 h 590 V 0 H 1766 Q 1100,0 847,248 594,497 594,1153 V 3053 H 172 v 447 h 422 v 994 z"
                 transform="scale(0.015625)" />
              <path
                 id="path3780"
                 d="m 603,3500 h 575 V 0 H 603 Z m 0,1363 h 575 V 4134 H 603 Z"
                 transform="scale(0.015625)" />
              <path
                 id="path3782"
                 d="m 1984,4856 q -418,-718 -622,-1422 -203,-703 -203,-1425 0,-721 205,-1429 205,-708 620,-1424 h -500 q -468,735 -701,1444 -233,709 -233,1409 0,697 231,1403 232,707 703,1444 z"
                 transform="scale(0.015625)" />
              <path
                 id="path3784"
                 d="m 3328,2828 q 216,388 516,572 300,184 706,184 547,0 844,-383 297,-382 297,-1088 V 0 h -578 v 2094 q 0,503 -179,746 -178,244 -543,244 -447,0 -707,-297 -259,-296 -259,-809 V 0 h -578 v 2094 q 0,506 -178,748 -178,242 -550,242 -441,0 -701,-298 -259,-298 -259,-808 V 0 H 581 v 3500 h 578 v -544 q 197,322 472,475 275,153 653,153 382,0 649,-194 267,-193 395,-562 z"
                 transform="scale(0.015625)" />
              <path
                 id="path3786"
                 d="m 750,794 h 659 V 256 L 897,-744 H 494 L 750,256 Z"
                 transform="scale(0.015625)" />
              <path
                 id="path3788"
                 d="m 2906,1791 q 0,625 -258,968 -257,344 -723,344 -462,0 -720,-344 -258,-343 -258,-968 0,-622 258,-966 258,-344 720,-344 466,0 723,344 258,344 258,966 z M 3481,434 q 0,-893 -397,-1329 -396,-436 -1215,-436 -303,0 -572,45 -269,45 -522,139 v 559 q 253,-137 500,-202 247,-66 503,-66 566,0 847,295 281,295 281,892 V 616 Q 2728,306 2450,153 2172,0 1784,0 1141,0 747,490 353,981 353,1791 q 0,812 394,1302 394,491 1037,491 388,0 666,-153 278,-153 456,-462 v 531 h 575 z"
                 transform="scale(0.015625)" />
              <path
                 id="path3790"
                 d="m 513,4856 h 500 q 468,-737 701,-1444 233,-706 233,-1403 0,-700 -233,-1409 -233,-709 -701,-1444 H 513 q 415,716 620,1424 205,708 205,1429 0,722 -205,1425 -205,704 -620,1422 z"
                 transform="scale(0.015625)" />
            </defs>
            <use
               xlink:href="#DejaVuSans-53-1"
               id="use3473"
               x="0"
               y="0"
               width="100%"
               height="100%" />
            <use
               xlink:href="#DejaVuSans-41-5"
               x="65.351562"
               id="use3475"
               y="0"
               width="100%"
               height="100%" />
            <use
               xlink:href="#DejaVuSans-20-1"
               x="133.75977"
               id="use3477"
               y="0"
               width="100%"
               height="100%" />
            <use
               xlink:href="#DejaVuSans-73-9"
               x="165.54688"
               id="use3479"
               y="0"
               width="100%"
               height="100%" />
            <use
               xlink:href="#DejaVuSans-63-0"
               x="217.64648"
               id="use3481"
               y="0"
               width="100%"
               height="100%" />
            <use
               xlink:href="#DejaVuSans-6f-6"
               x="272.62695"
               id="use3483"
               y="0"
               width="100%"
               height="100%" />
            <use
               xlink:href="#DejaVuSans-70-5"
               x="333.80859"
               id="use3485"
               y="0"
               width="100%"
               height="100%" />
            <use
               xlink:href="#DejaVuSans-65-54"
               x="397.28516"
               id="use3487"
               y="0"
               width="100%"
               height="100%" />
            <use
               xlink:href="#DejaVuSans-20-1"
               x="458.80859"
               id="use3489"
               y="0"
               width="100%"
               height="100%" />
            <use
               xlink:href="#DejaVuSans-72-8"
               x="490.5957"
               id="use3491"
               y="0"
               width="100%"
               height="100%" />
            <use
               xlink:href="#DejaVuSans-61-6"
               x="531.70898"
               id="use3493"
               y="0"
               width="100%"
               height="100%" />
            <use
               xlink:href="#DejaVuSans-74-8"
               x="592.98828"
               id="use3495"
               y="0"
               width="100%"
               height="100%" />
            <use
               xlink:href="#DejaVuSans-69-95"
               x="632.19727"
               id="use3497"
               y="0"
               width="100%"
               height="100%" />
            <use
               xlink:href="#DejaVuSans-6f-6"
               x="659.98047"
               id="use3499"
               y="0"
               width="100%"
               height="100%" />
            <use
               xlink:href="#DejaVuSans-20-1"
               x="721.16211"
               id="use3501"
               y="0"
               width="100%"
               height="100%" />
            <use
               xlink:href="#DejaVuSans-28-7"
               x="752.94922"
               id="use3503"
               y="0"
               width="100%"
               height="100%" />
            <use
               xlink:href="#DejaVuSans-6d-4"
               x="791.96289"
               id="use3505"
               y="0"
               width="100%"
               height="100%" />
            <use
               xlink:href="#DejaVuSans-2c-8"
               x="889.375"
               id="use3507"
               y="0"
               width="100%"
               height="100%" />
            <use
               xlink:href="#DejaVuSans-20-1"
               x="921.16211"
               id="use3509"
               y="0"
               width="100%"
               height="100%" />
            <use
               xlink:href="#DejaVuSans-72-8"
               x="952.94922"
               id="use3511"
               y="0"
               width="100%"
               height="100%" />
            <use
               xlink:href="#DejaVuSans-2c-8"
               x="994.0625"
               id="use3513"
               y="0"
               width="100%"
               height="100%" />
            <use
               xlink:href="#DejaVuSans-20-1"
               x="1025.8496"
               id="use3515"
               y="0"
               width="100%"
               height="100%" />
            <use
               xlink:href="#DejaVuSans-67-1"
               x="1057.6367"
               id="use3517"
               y="0"
               width="100%"
               height="100%" />
            <use
               xlink:href="#DejaVuSans-29-3"
               x="1121.1133"
               id="use3519"
               y="0"
               width="100%"
               height="100%" />
          </g>
        </g>
        <text
           xml:space="preserve"
           style="font-size:16px;line-height:1.25;font-family:Verdana;-inkscape-font-specification:Verdana;stroke-width:0.75"
           x="-478.13879"
           y="95.439636"
           id="text6112"
           transform="rotate(-30)"><tspan
             sodipodi:role="line"
             id="tspan6110"
             style="font-size:16px;stroke-width:0.75"
             x="-478.13879"
             y="95.439636">(1, 0, 0)</tspan></text>
        <text
           xml:space="preserve"
           style="font-size:16px;line-height:1.25;font-family:Verdana;-inkscape-font-specification:Verdana;stroke-width:0.75;stroke-linecap:butt;stroke-linejoin:round"
           x="-464.72073"
           y="141.95544"
           id="text6112-0"
           transform="rotate(-30)"><tspan
             sodipodi:role="line"
             id="tspan6110-6"
             style="font-size:16px;stroke-width:0.75"
             x="-464.72073"
             y="141.95544">(0.65, 0.25, 0.1)</tspan></text>
        <text
           xml:space="preserve"
           style="font-size:16px;line-height:1.25;font-family:Verdana;-inkscape-font-specification:Verdana;stroke-width:0.75;stroke-linecap:butt;stroke-linejoin:round"
           x="-390.02432"
           y="190.36581"
           id="text6112-0-6"
           transform="rotate(-30)"><tspan
             sodipodi:role="line"
             id="tspan6110-6-7"
             style="font-size:16px;stroke-width:0.75"
             x="-390.02432"
             y="190.36581">(0.1, 0.25, 0.65)</tspan></text>
        <text
           xml:space="preserve"
           style="font-size:16px;line-height:1.25;font-family:Verdana;-inkscape-font-specification:Verdana;stroke-width:0.75;stroke-linecap:butt;stroke-linejoin:round"
           x="-247.5542"
           y="234.45605"
           id="text6112-0-6-1"
           transform="rotate(-30)"><tspan
             sodipodi:role="line"
             id="tspan6110-6-7-2"
             style="font-size:16px;stroke-width:0.75"
             x="-247.5542"
             y="234.45605">(0, 0, 1)</tspan></text>
      </g>
      <g
         id="matplotlib.axis_2-4">
        <g
           id="ytick_1-1">
          <g
             id="line2d_5-6">
            <defs
               id="defs3526">
              <path
                 id="path3820"
                 d="M 0,0 H -3.5"
                 style="stroke:#000000;stroke-width:0.8" />
            </defs>
            <g
               id="g3530">
              <use
                 xlink:href="#mff897257d2"
                 x="75.731247"
                 y="276.97775"
                 style="stroke:#000000;stroke-width:0.8"
                 id="use3528"
                 width="100%"
                 height="100%" />
            </g>
          </g>
          <g
             id="text_6-5">
            <!-- 0 -->
            <g
               transform="matrix(0.2,0,0,-0.2,56.00625,284.57618)"
               id="g3538">
              <defs
                 id="defs3534">
                <path
                   id="path3826"
                   d="m 2034,4250 q -487,0 -733,-480 -245,-479 -245,-1442 0,-959 245,-1439 246,-480 733,-480 491,0 736,480 246,480 246,1439 0,963 -246,1442 -245,480 -736,480 z m 0,500 q 785,0 1199,-621 414,-620 414,-1801 0,-1178 -414,-1799 -414,-620 -1199,-620 -784,0 -1198,620 -414,621 -414,1799 0,1181 414,1801 414,621 1198,621 z"
                   transform="scale(0.015625)" />
              </defs>
              <use
                 xlink:href="#DejaVuSans-30-3"
                 id="use3536"
                 x="0"
                 y="0"
                 width="100%"
                 height="100%" />
            </g>
          </g>
        </g>
        <g
           id="ytick_2-5">
          <g
             id="line2d_6-2">
            <g
               id="g3544">
              <use
                 xlink:href="#mff897257d2"
                 x="75.731247"
                 y="224.54189"
                 style="stroke:#000000;stroke-width:0.8"
                 id="use3542"
                 width="100%"
                 height="100%" />
            </g>
          </g>
          <g
             id="text_7-5">
            <!-- 20 -->
            <g
               transform="matrix(0.2,0,0,-0.2,43.28125,232.14032)"
               id="g3551">
              <use
                 xlink:href="#DejaVuSans-32-9"
                 id="use3547"
                 x="0"
                 y="0"
                 width="100%"
                 height="100%" />
              <use
                 xlink:href="#DejaVuSans-30-3"
                 x="63.623047"
                 id="use3549"
                 y="0"
                 width="100%"
                 height="100%" />
            </g>
          </g>
        </g>
        <g
           id="ytick_3-4">
          <g
             id="line2d_7-9">
            <g
               id="g3557">
              <use
                 xlink:href="#mff897257d2"
                 x="75.731247"
                 y="172.10602"
                 style="stroke:#000000;stroke-width:0.8"
                 id="use3555"
                 width="100%"
                 height="100%" />
            </g>
          </g>
          <g
             id="text_8-6">
            <!-- 40 -->
            <g
               transform="matrix(0.2,0,0,-0.2,43.28125,179.70446)"
               id="g3564">
              <use
                 xlink:href="#DejaVuSans-34-5"
                 id="use3560"
                 x="0"
                 y="0"
                 width="100%"
                 height="100%" />
              <use
                 xlink:href="#DejaVuSans-30-3"
                 x="63.623047"
                 id="use3562"
                 y="0"
                 width="100%"
                 height="100%" />
            </g>
          </g>
        </g>
        <g
           id="ytick_4-3">
          <g
             id="line2d_8-5">
            <g
               id="g3570">
              <use
                 xlink:href="#mff897257d2"
                 x="75.731247"
                 y="119.67016"
                 style="stroke:#000000;stroke-width:0.8"
                 id="use3568"
                 width="100%"
                 height="100%" />
            </g>
          </g>
          <g
             id="text_9-9">
            <!-- 60 -->
            <g
               transform="matrix(0.2,0,0,-0.2,43.28125,127.2686)"
               id="g3580">
              <defs
                 id="defs3574">
                <path
                   id="path3852"
                   d="m 2113,2584 q -425,0 -674,-291 -248,-290 -248,-796 0,-503 248,-796 249,-292 674,-292 425,0 673,292 248,293 248,796 0,506 -248,796 -248,291 -673,291 z m 1253,1979 v -575 q -238,112 -480,171 -242,60 -480,60 -625,0 -955,-422 -329,-422 -376,-1275 184,272 462,417 279,145 613,145 703,0 1111,-427 408,-426 408,-1160 0,-719 -425,-1154 -425,-434 -1131,-434 -810,0 -1238,620 -428,621 -428,1799 0,1106 525,1764 525,658 1409,658 238,0 480,-47 242,-47 505,-140 z"
                   transform="scale(0.015625)" />
              </defs>
              <use
                 xlink:href="#DejaVuSans-36"
                 id="use3576"
                 x="0"
                 y="0"
                 width="100%"
                 height="100%" />
              <use
                 xlink:href="#DejaVuSans-30-3"
                 x="63.623047"
                 id="use3578"
                 y="0"
                 width="100%"
                 height="100%" />
            </g>
          </g>
        </g>
        <g
           id="ytick_5">
          <g
             id="line2d_9-5">
            <g
               id="g3586">
              <use
                 xlink:href="#mff897257d2"
                 x="75.731247"
                 y="67.234299"
                 style="stroke:#000000;stroke-width:0.8"
                 id="use3584"
                 width="100%"
                 height="100%" />
            </g>
          </g>
          <g
             id="text_10-6">
            <!-- 80 -->
            <g
               transform="matrix(0.2,0,0,-0.2,43.28125,74.832737)"
               id="g3596">
              <defs
                 id="defs3590">
                <path
                   id="path3863"
                   d="m 2034,2216 q -450,0 -708,-241 -257,-241 -257,-662 0,-422 257,-663 258,-241 708,-241 450,0 709,242 260,243 260,662 0,421 -258,662 -257,241 -711,241 z m -631,268 q -406,100 -633,378 -226,279 -226,679 0,559 398,884 399,325 1092,325 697,0 1094,-325 397,-325 397,-884 0,-400 -227,-679 -226,-278 -629,-378 456,-106 710,-416 255,-309 255,-755 Q 3634,634 3220,271 2806,-91 2034,-91 1263,-91 848,271 434,634 434,1313 q 0,446 256,755 257,310 713,416 z m -231,997 q 0,-362 226,-565 227,-203 636,-203 407,0 636,203 230,203 230,565 0,363 -230,566 -229,203 -636,203 -409,0 -636,-203 -226,-203 -226,-566 z"
                   transform="scale(0.015625)" />
              </defs>
              <use
                 xlink:href="#DejaVuSans-38-2"
                 id="use3592"
                 x="0"
                 y="0"
                 width="100%"
                 height="100%" />
              <use
                 xlink:href="#DejaVuSans-30-3"
                 x="63.623047"
                 id="use3594"
                 y="0"
                 width="100%"
                 height="100%" />
            </g>
          </g>
        </g>
        <g
           id="ytick_6">
          <g
             id="line2d_10-3">
            <g
               id="g3602">
              <use
                 xlink:href="#mff897257d2"
                 x="75.731247"
                 y="14.798437"
                 style="stroke:#000000;stroke-width:0.8"
                 id="use3600"
                 width="100%"
                 height="100%" />
            </g>
          </g>
          <g
             id="text_11">
            <!-- 100 -->
            <g
               transform="matrix(0.2,0,0,-0.2,30.55625,22.396875)"
               id="g3611">
              <use
                 xlink:href="#DejaVuSans-31-8"
                 id="use3605"
                 x="0"
                 y="0"
                 width="100%"
                 height="100%" />
              <use
                 xlink:href="#DejaVuSans-30-3"
                 x="63.623047"
                 id="use3607"
                 y="0"
                 width="100%"
                 height="100%" />
              <use
                 xlink:href="#DejaVuSans-30-3"
                 x="127.24609"
                 id="use3609"
                 y="0"
                 width="100%"
                 height="100%" />
            </g>
          </g>
        </g>
        <g
           id="text_12">
          <!-- error rate (%) -->
          <g
             transform="matrix(0,-0.2,-0.2,0,22.396875,212.09987)"
             id="g3646">
            <defs
               id="defs3616">
              <path
                 id="path3880"
                 d="m 4653,2053 q -272,0 -427,-231 -154,-231 -154,-644 0,-406 154,-639 155,-233 427,-233 266,0 420,233 155,233 155,639 0,410 -155,642 -154,233 -420,233 z m 0,397 q 494,0 784,-344 291,-343 291,-928 0,-584 -292,-927 -292,-342 -783,-342 -500,0 -791,342 -290,343 -290,927 0,588 292,930 292,342 789,342 z M 1428,4353 q -269,0 -424,-233 -154,-232 -154,-639 0,-412 153,-644 153,-231 425,-231 272,0 426,231 155,232 155,644 0,403 -156,637 -156,235 -425,235 z m 2822,397 h 500 L 1831,-91 h -500 z m -2822,0 q 494,0 787,-342 294,-342 294,-927 0,-590 -292,-931 -292,-341 -789,-341 -497,0 -786,342 -289,343 -289,930 0,582 290,925 291,344 785,344 z"
                 transform="scale(0.015625)" />
            </defs>
            <use
               xlink:href="#DejaVuSans-65-54"
               id="use3618"
               x="0"
               y="0"
               width="100%"
               height="100%" />
            <use
               xlink:href="#DejaVuSans-72-8"
               x="61.523438"
               id="use3620"
               y="0"
               width="100%"
               height="100%" />
            <use
               xlink:href="#DejaVuSans-72-8"
               x="100.88672"
               id="use3622"
               y="0"
               width="100%"
               height="100%" />
            <use
               xlink:href="#DejaVuSans-6f-6"
               x="139.75"
               id="use3624"
               y="0"
               width="100%"
               height="100%" />
            <use
               xlink:href="#DejaVuSans-72-8"
               x="200.93164"
               id="use3626"
               y="0"
               width="100%"
               height="100%" />
            <use
               xlink:href="#DejaVuSans-20-1"
               x="242.04492"
               id="use3628"
               y="0"
               width="100%"
               height="100%" />
            <use
               xlink:href="#DejaVuSans-72-8"
               x="273.83203"
               id="use3630"
               y="0"
               width="100%"
               height="100%" />
            <use
               xlink:href="#DejaVuSans-61-6"
               x="314.94531"
               id="use3632"
               y="0"
               width="100%"
               height="100%" />
            <use
               xlink:href="#DejaVuSans-74-8"
               x="376.22461"
               id="use3634"
               y="0"
               width="100%"
               height="100%" />
            <use
               xlink:href="#DejaVuSans-65-54"
               x="415.43359"
               id="use3636"
               y="0"
               width="100%"
               height="100%" />
            <use
               xlink:href="#DejaVuSans-20-1"
               x="476.95703"
               id="use3638"
               y="0"
               width="100%"
               height="100%" />
            <use
               xlink:href="#DejaVuSans-28-7"
               x="508.74414"
               id="use3640"
               y="0"
               width="100%"
               height="100%" />
            <use
               xlink:href="#DejaVuSans-25-3"
               x="547.75781"
               id="use3642"
               y="0"
               width="100%"
               height="100%" />
            <use
               xlink:href="#DejaVuSans-29-3"
               x="642.77734"
               id="use3644"
               y="0"
               width="100%"
               height="100%" />
          </g>
        </g>
      </g>
      <g
         id="patch_7">
        <path
           d="M 75.73125,276.97775 V 10.865748"
           style="fill:none;stroke:#000000;stroke-width:0.8;stroke-linecap:square;stroke-linejoin:miter"
           id="path3650" />
      </g>
      <g
         id="patch_8">
        <path
           d="M 432.85125,276.97775 V 10.865748"
           style="fill:none;stroke:#000000;stroke-width:0.8;stroke-linecap:square;stroke-linejoin:miter"
           id="path3653" />
      </g>
      <g
         id="patch_9">
        <path
           d="m 75.73125,276.97775 h 357.12"
           style="fill:none;stroke:#000000;stroke-width:0.8;stroke-linecap:square;stroke-linejoin:miter"
           id="path3656" />
      </g>
      <g
         id="patch_10">
        <path
           d="m 75.73125,10.865748 h 357.12"
           style="fill:none;stroke:#000000;stroke-width:0.8;stroke-linecap:square;stroke-linejoin:miter"
           id="path3659" />
      </g>
    </g>
  </g>
</svg>
